<?xml version="1.0" encoding="utf-8"?>
<!-- Generator: Adobe Illustrator 23.0.2, SVG Export Plug-In . SVG Version: 6.00 Build 0)  -->
<svg version="1.1" id="Layer_1" xmlns="http://www.w3.org/2000/svg" xmlns:xlink="http://www.w3.org/1999/xlink" x="0px" y="0px"
	 viewBox="0 0 100 100" style="enable-background:new 0 0 100 100;" xml:space="preserve">
<style type="text/css">
	.st0{fill:#83CEC4;}
	.st1{fill:#E9E8E9;}
	.st2{fill:#D5ECE0;}
	.st3{fill:#ADDCCB;}
	.st4{fill:#6FC9C4;}
	.st5{fill:#45C1C3;}
	.st6{fill:#3BABAD;}
</style>
<g>
	<polygon class="st0" points="50,12.5 31.7,12.5 25.3,20.4 25.3,50 25.3,79.6 31.7,87.5 50,87.5 68.3,87.5 74.7,79.6 74.7,50 
		74.7,20.4 68.3,12.5 	"/>
	<g>
		<g>
			<g>
				<polygon class="st1" points="68.3,12.5 50,12.5 31.7,12.5 25.3,20.4 25.3,50 25.3,79.6 31.7,87.5 50,87.5 68.3,87.5 74.7,79.6 
					74.7,50 74.7,20.4 				"/>
				<rect x="38" y="25.8" class="st0" width="24.1" height="48.5"/>
				<polygon class="st2" points="25.3,20.4 38,25.8 31.7,12.5 				"/>
				<polygon class="st3" points="38,25.8 31.7,12.5 68.3,12.5 62,25.8 				"/>
				<polygon class="st3" points="38,74.2 38,25.8 25.3,20.4 25.3,79.6 				"/>
				<polygon class="st4" points="68.3,12.5 62,25.8 74.7,20.4 				"/>
				<polygon class="st4" points="38,74.2 31.7,87.5 25.3,79.6 				"/>
				<polygon class="st5" points="38,74.2 31.7,87.5 68.3,87.5 62,74.2 				"/>
				<polygon class="st5" points="62,25.8 62,74.2 74.7,79.6 74.7,20.4 				"/>
				<polygon class="st6" points="68.3,87.5 74.7,79.6 62,74.2 				"/>
			</g>
		</g>
	</g>
</g>
</svg>
