<?xml version="1.0" encoding="utf-8"?>
<!-- Generator: Adobe Illustrator 23.0.2, SVG Export Plug-In . SVG Version: 6.00 Build 0)  -->
<svg version="1.1" id="Layer_1" xmlns="http://www.w3.org/2000/svg" xmlns:xlink="http://www.w3.org/1999/xlink" x="0px" y="0px"
	 viewBox="0 0 100 100" style="enable-background:new 0 0 100 100;" xml:space="preserve">
<style type="text/css">
	.st0{fill:#FFD240;}
	.st1{fill:#FBC041;}
	.st2{fill:#FBB541;}
	.st3{fill:#F89C40;}
	.st4{fill:#FEE176;}
</style>
<g>
	<polygon class="st0" points="28.4,12.5 6.7,50 28.4,87.5 71.7,87.5 93.3,50 71.7,12.5 	"/>
	<g>
		<g>
			<g>
				<polygon class="st0" points="39.4,68.4 28.8,50 39.4,31.6 60.6,31.6 71.2,50 60.6,68.4 				"/>
				<polygon class="st1" points="28.4,12.5 39.4,31.6 60.6,31.6 71.7,12.5 				"/>
				<polygon class="st2" points="60.6,31.6 71.7,12.5 93.3,50 71.2,50 				"/>
				<polygon class="st3" points="93.3,50 71.2,50 60.6,68.4 71.7,87.5 				"/>
				<polygon class="st2" points="39.4,68.4 60.6,68.4 71.7,87.5 28.4,87.5 				"/>
				<polygon class="st1" points="6.7,50 28.4,87.5 39.4,68.4 28.8,50 				"/>
				<polygon class="st4" points="6.7,50 28.4,12.5 39.4,31.6 28.8,50 				"/>
			</g>
		</g>
	</g>
</g>
</svg>
