<?xml version="1.0" encoding="utf-8"?>
<!-- Generator: Adobe Illustrator 23.0.2, SVG Export Plug-In . SVG Version: 6.00 Build 0)  -->
<svg version="1.1" id="Layer_1" xmlns="http://www.w3.org/2000/svg" xmlns:xlink="http://www.w3.org/1999/xlink" x="0px" y="0px"
	 viewBox="0 0 100 100" style="enable-background:new 0 0 100 100;" xml:space="preserve">
<style type="text/css">
	.st0{fill:#CB9BBE;}
	.st1{fill:#A7809E;}
	.st2{fill:#D8A5CA;}
	.st3{fill:#AD85A4;}
	.st4{fill:#C596B9;}
	.st5{fill:#BB8EB0;}
	.st6{fill:#977591;}
</style>
<g>
	<polygon class="st0" points="82.5,68.8 82.5,31.2 50,12.5 17.5,31.2 17.5,68.8 50,87.5 	"/>
	<g>
		<g>
			<g>
				<polygon class="st1" points="50,12.5 17.5,31.2 17.5,68.8 50,87.5 82.5,68.8 82.5,31.2 				"/>
				<polygon class="st2" points="50,12.5 34.4,31.2 50,31.2 65.6,31.2 				"/>
				<polygon class="st3" points="50,87.5 65.6,68.8 50,68.8 34.4,68.8 				"/>
				<rect x="34.4" y="31.2" class="st0" width="31.2" height="37.5"/>
				<polygon class="st4" points="17.5,31.2 34.4,31.2 50,12.5 				"/>
				<polygon class="st4" points="50,12.5 65.6,31.2 82.5,31.2 				"/>
				<rect x="17.5" y="31.2" class="st5" width="16.9" height="37.5"/>
				<rect x="65.6" y="31.2" class="st5" width="16.8" height="37.5"/>
				<polygon class="st6" points="65.6,68.8 50,87.5 82.5,68.8 				"/>
				<polygon class="st6" points="34.4,68.8 50,87.5 17.5,68.8 				"/>
			</g>
		</g>
	</g>
</g>
</svg>
