<svg xmlns="http://www.w3.org/2000/svg" viewBox="0 0 195 40" enable-background="new 0 0 195 40"><style type="text/css">.st0{fill:#FFFFFF;}</style><title>Kogo 4.5x</title><desc>Created with Sketch.</desc><path class="st0" d="M26.5 29.1h6.4l3.3 4.1-.6 1.4h-8.3l.2-1.4-2-3 1-1.1zm4.5-18.4h3.5l15.6 18.4-1.2 5.6h-6.7l.4-1.6-14.5-17.2 2.9-5.2zm6.2-7.4l7.3 5.7-.9 1 1.3 1.8v1.9l-3.6 2.9-6.1-7.2h-3.5l1.3-2.6 4.2-3.5zm-15 18l5.1-4.3 6.7 8-1.9 2.9h-6.2l-4.3 5.5-1 1.3h-5.6v-6.8l5.2-6.6h2zM75.6 26.7c-1.3 0-1.9-.2-2.4-.8-.9-.8-1.2-1.9-1.2-5.4 0-3.5.3-4.6 1.1-5.4.5-.5 1.2-.7 2.4-.7h4.2c1.3 0 1.9.2 2.4.7.8.8 1.1 1.9 1.1 5.4s-.3 4.6-1.1 5.4c-.5.6-1.2.8-2.4.8h-4.1zm-.2-2.7h4.5v-6.9h-4.5v6.9zM93.5 18.3v8.299999999999999h3.4v-8.6c0-1.8-.2-2.4-.7-2.9-.5-.5-1.1-.7-2.2-.7h-3l-1.8 1.6v-1.5h-3.5v12.3h3.4v-9.5h4.2l.2 1zM66.7 11h4.1l-5.8 7.4 6.1 8.3h-4.3l-4.8-6.5h-1.1v6.5h-3.7v-15.7h3.7v6.1h1.1l4.7-6.1zM107.4 14.4v1.5l-1.7-1.5h-2.6c-1.2 0-1.9.2-2.5.8-.7.8-1.1 2.4-1.1 5.4 0 3 .3 4.6 1 5.4.6.5 1.2.8 2.5.8h4.3v1.7h-6.3v.7l1.6 1.7h5c1.3 0 2-.2 2.4-.7.6-.6.8-.9.8-3.1v-12.7h-3.4zm0 9.6h-4.5v-6.9h4.5v6.9z"/></svg>