<?xml version="1.0" encoding="utf-8"?>
<!-- Generator: Adobe Illustrator 23.0.2, SVG Export Plug-In . SVG Version: 6.00 Build 0)  -->
<svg version="1.1" xmlns="http://www.w3.org/2000/svg" xmlns:xlink="http://www.w3.org/1999/xlink" x="0px" y="0px"
	 viewBox="0 0 500 500" style="enable-background:new 0 0 500 500;" xml:space="preserve">
<style type="text/css">
	.st0{display:none;}
	.st1{display:inline;fill:#68E0E0;}
	.st2{opacity:7.000000e-02;}
	.st3{fill:#FFFFFF;}
	.st4{fill:#A4F4F0;}
	.st5{fill:#FFC0B6;}
	.st6{fill:#6D4332;}
	.st7{fill:#1C88B7;}
	.st8{fill:#F9ADA7;}
	.st9{fill:#F44747;}
	.st10{fill:#272525;}
	.st11{fill:#513882;}
	.st12{fill:#FFCE31;}
	.st13{fill:none;}
	.st14{fill:#E5E5E5;}
	.st15{fill:#AA705E;}
	.st16{fill:#FF7C33;}
	.st17{fill:#C65828;}
	.st18{fill:#2C3C4C;}
	.st19{fill:#666666;}
	.st20{fill:#D85C25;}
	.st21{fill:#BBFFE8;}
	.st22{fill:#5B5B5B;}
	.st23{fill:#9FDDC6;}
	.st24{fill:none;stroke:#FFFFFF;stroke-width:3;stroke-miterlimit:10;}
	.st25{fill:none;stroke:#FFFFFF;stroke-width:4;stroke-miterlimit:10;}
	.st26{fill:none;stroke:#FFFFFF;stroke-width:2;stroke-miterlimit:10;}
	.st27{fill:none;stroke:#EDFBFC;stroke-width:4;stroke-miterlimit:10;}
	.st28{fill:none;stroke:#EDFBFC;stroke-width:3;stroke-miterlimit:10;}
	.st29{fill:none;stroke:#FFFFFF;stroke-width:6;stroke-miterlimit:10;}
	.st30{fill:none;stroke:#FFFFFF;stroke-width:0.75;stroke-miterlimit:10;}
	.st31{fill:none;stroke:#FFFFFF;stroke-width:1.5;stroke-miterlimit:10;stroke-dasharray:5;}
</style>
<g id="BACKGROUND" class="st0">
	<rect class="st1" width="500" height="500"/>
</g>
<g id="OBJECTS">
	<path class="st2" d="M467.2,423.2c0,7.3-82.7,13.2-184.7,13.2c-102,0-184.7-5.9-184.7-13.2c0-7.3,82.7-13.2,184.7-13.2
		C384.5,410,467.2,415.9,467.2,423.2z"/>
	<g>
		<path class="st3" d="M90,287h64.6v19h-21.9v114h-20.9V306H90V287z"/>
		<path class="st3" d="M207.4,420c-1.1-3.4-1.9-5.5-1.9-16.3v-20.9c0-12.4-4.2-16.9-13.7-16.9h-7.2V420h-20.9V287h31.5
			c21.7,0,31,10.1,31,30.6V328c0,13.7-4.4,22.6-13.7,27c10.5,4.4,13.9,14.4,13.9,28.3v20.5c0,6.5,0.2,11.2,2.3,16.2H207.4z
			 M184.6,306v40.8h8.2c7.8,0,12.5-3.4,12.5-14.1v-13.1c0-9.5-3.2-13.7-10.6-13.7H184.6z"/>
		<path class="st3" d="M240.1,287H261v133h-20.9V287z"/>
		<path class="st3" d="M307.7,395.5l16-108.5h19.2l-20.5,133h-31.2l-20.5-133h21.1L307.7,395.5z"/>
		<path class="st3" d="M352.6,287h20.9v133h-20.9V287z"/>
		<path class="st3" d="M456.3,420h-21.1l-3.6-24.1H406l-3.6,24.1h-19.2l21.3-133H435L456.3,420z M408.6,377.8h20.1l-10.1-67.3
			L408.6,377.8z"/>
	</g>
	<g>
		<g>
			<path class="st4" d="M380.3,59.7c-1.1,0-2-0.9-2-2c0-1.1,0.9-2,2-2c1.1,0,2,0.9,2,2C382.3,58.8,381.4,59.7,380.3,59.7z"/>
			<path class="st4" d="M374.4,68.2h6.1c-0.2-0.5-0.3-1-0.3-1.5c0-2.2,1.8-4,4-4c0.5,0,0.9,0.1,1.3,0.2c0-0.3-0.1-0.7-0.1-1
				c0-5.3,4.3-9.6,9.6-9.6c4.9,0,8.9,3.6,9.5,8.3c0.3-0.1,0.7-0.1,1-0.1c3.3,0,5.9,2.7,5.9,5.9c0,0.6-0.1,1.3-0.3,1.8h3.1
				c1.8,0,3.3,1.5,3.3,3.3c0,1.8-1.5,3.3-3.3,3.3h-40c-1.8,0-3.3-1.5-3.3-3.3C371.2,69.7,372.6,68.2,374.4,68.2z"/>
		</g>
		<g>
			<path class="st4" d="M206.2,229c-0.9,0-1.6-0.7-1.6-1.6c0-0.9,0.7-1.6,1.6-1.6c0.9,0,1.6,0.7,1.6,1.6
				C207.8,228.3,207.1,229,206.2,229z"/>
			<path class="st4" d="M201.5,235.8h4.9c-0.2-0.4-0.2-0.8-0.2-1.2c0-1.8,1.4-3.2,3.2-3.2c0.4,0,0.7,0.1,1,0.2c0-0.3,0-0.5,0-0.8
				c0-4.2,3.4-7.7,7.7-7.7c3.9,0,7.1,2.9,7.6,6.6c0.3,0,0.5-0.1,0.8-0.1c2.6,0,4.7,2.1,4.7,4.7c0,0.5-0.1,1-0.2,1.5h2.5
				c1.4,0,2.6,1.2,2.6,2.6s-1.2,2.6-2.6,2.6h-31.9c-1.4,0-2.6-1.2-2.6-2.6S200.1,235.8,201.5,235.8z"/>
		</g>
		<g>
			<path class="st4" d="M89.3,106.9h-5.8c0.2-0.4,0.3-0.9,0.3-1.5c0-2.1-1.7-3.8-3.8-3.8c-0.4,0-0.8,0.1-1.2,0.2
				c0-0.3,0.1-0.7,0.1-1c0-5.1-4.1-9.2-9.2-9.2c-4.6,0-8.5,3.4-9.1,7.9c-0.3-0.1-0.6-0.1-1-0.1c-3.1,0-5.7,2.5-5.7,5.7
				c0,0.6,0.1,1.2,0.3,1.7h-5.3c-1.7,0-3.1,1.4-3.1,3.1c0,1.7,1.4,3.1,3.1,3.1h40.4c1.7,0,3.1-1.4,3.1-3.1
				C92.4,108.3,91,106.9,89.3,106.9z"/>
		</g>
		<g>
			<path class="st4" d="M278.5,114.1c-1.3,0-2.4-1.1-2.4-2.4c0-1.3,1.1-2.4,2.4-2.4c1.3,0,2.4,1.1,2.4,2.4
				C280.9,113,279.8,114.1,278.5,114.1z"/>
			<path class="st4" d="M273.3,124.1h1.1c0-0.1,0-0.2,0-0.3c0-3.2,2.6-5.8,5.8-5.8c0.9,0,1.8,0.2,2.5,0.6
				c0.3-6.3,5.5-11.3,11.9-11.3c6.2,0,11.3,4.8,11.8,10.9c1.2-0.8,2.6-1.2,4.1-1.2c3.6,0,6.5,2.5,7.2,5.9c0.6-1.3,1.8-2.1,3.3-2.1
				c1.9,0,3.4,1.5,3.6,3.4h4.2c2.2,0,4.1,1.8,4.1,4.1c0,2.2-1.8,4.1-4.1,4.1h-55.5c-2.2,0-4.1-1.8-4.1-4.1
				C269.3,125.9,271.1,124.1,273.3,124.1z"/>
			<path class="st4" d="M341.8,124.1h2.8c2.2,0,4.1,1.8,4.1,4.1c0,2.2-1.8,4.1-4.1,4.1h-2.8c-2.2,0-4.1-1.8-4.1-4.1
				C337.7,125.9,339.5,124.1,341.8,124.1z"/>
		</g>
		<polygon class="st5" points="103.6,303.4 81.1,300.7 64.9,303.6 49.8,288.2 47.5,290.6 61.6,310 78.7,310.1 74.7,339.5 
			97.9,345.1 101.9,318.7 103.2,312 115.4,311.7 123.3,329 126.5,329.5 119.4,305.4 		"/>
		<g>
			<g>
				<g>
					<polygon class="st6" points="85.3,289.1 80.8,276.1 84.4,277.5 82.6,271.9 90.1,276.8 88.9,273.8 103.7,281.3 100.7,290.6 
											"/>
					<polygon class="st7" points="93.4,380 71.9,366.9 83.6,352.8 80.4,421.3 85.2,421.3 97.9,345.1 74.7,339.5 58.4,370.4 
						93.4,384.9 					"/>
					<polygon points="85.2,421.3 85.2,425.5 82.9,425.5 82.9,424.5 81.5,425.5 71.4,425.5 71.4,425.5 80.4,421.3 					"/>
					<polygon points="93.4,380 97.5,380 97.5,382.3 96.5,382.3 97.5,383.7 97.5,393.8 97.5,393.8 93.4,384.9 					"/>
					<path class="st5" d="M49.8,288.2c1.1-4.6-1.8-1.8-1.8-1.8s-4.3-2.8-5.2-1.9c-1.2,1.2,4.7,6,4.7,6L49.8,288.2z"/>
					<path class="st5" d="M123.3,329c-4.4,1.8-0.4,2.5-0.4,2.5s0.3,5.1,1.5,5.3c1.7,0.2,2.2-7.3,2.2-7.3L123.3,329z"/>
					<path class="st5" d="M86.3,301.4l8.5,1c0,0-1,5.8-4.9,5.4C85.2,307.2,86.3,301.4,86.3,301.4z"/>
					<g>
						<g>
							<g>
								<polygon class="st5" points="96.3,300.5 86.6,299.4 86.1,283.9 100.7,285.6 								"/>
								<path class="st5" d="M86.2,287.6c0,0-1.8-1-1.9,0.5c-0.2,1.9,2.1,3.5,2.1,3.5L86.2,287.6z"/>
								<path class="st5" d="M99.7,289.2c0,0,2.1-0.6,1.9,1c-0.2,1.9-3,2.9-3,2.9L99.7,289.2z"/>
								<g>
									<g>
										<g>
											<path class="st8" d="M93.7,293.7c-0.2-1.8-0.5-3.3-0.8-3.9c-0.1,0.6-0.1,2.1,0.1,3.9c0,0.4,0.1,1.1,0.1,1c0,0,0,0-0.1,0
												c-0.1,0-0.3,0-0.4,0c-0.3,0-0.5,0-0.7,0.1c-0.4,0.1-0.8,0.1-1,0.2c0.2,0.1,0.6,0.2,1,0.2c0.2,0,0.5,0.1,0.7,0.1
												c0.1,0,0.3,0,0.4,0c0.3,0,0.5,0,0.8,0C93.8,294.9,93.7,294.3,93.7,293.7z"/>
										</g>
									</g>
								</g>
							</g>
							
								<rect x="87.7" y="299" transform="matrix(0.1137 -0.9935 0.9935 0.1137 -218.3894 357.9665)" class="st5" width="7.4" height="4.8"/>
							<polygon class="st8" points="89,301.8 93.9,300.7 94,300.2 89.2,299.7 							"/>
						</g>
					</g>
					<polygon class="st9" points="97.9,345.1 74.7,339.5 78.7,310.1 71.7,310.1 72.2,302.3 81.1,300.7 106.9,303.8 106,311.9 
						103.2,312 					"/>
				</g>
			</g>
		</g>
		<g>
			<g>
				<g>
					<path class="st5" d="M168.7,145.2c-3.7,2.3-2.2-1-2.2-1s-3.6-3.1-3.1-4c0.8-1.4,6.6,2.5,6.6,2.5L168.7,145.2z"/>
					<g>
						<path class="st10" d="M154,140.5c0-6.6-2.8-8.8-8.2-6.8c-3.2,1.1-4.1,6.4-3.1,9c0.8,1.8,1.9,2.2,1.3,4.4c-0.4,1.5-2,2-2.2,3.6
							c-0.3,1.9,0.9,2.9,2.5,3.9c2.4,1.5,0.4,3.8-1.5,3.9c2.1,0.8,4.4-0.4,5.2-1.4c1.4-1.5-0.8-2.8-0.9-4.4c-0.2-2.7,1-2.9,1.8-4.4
							c1.1-2.1-2.4-6.3,2-6.1L154,140.5z"/>
					</g>
					<path class="st10" d="M151.5,151.7c0,0-8.1-12.5,5.1-15.3c10.5-2.2,11.6,11.3,8.8,13C161.9,151.5,151.5,151.7,151.5,151.7z"/>
					<path class="st5" d="M162.7,163.2l-0.1-6.6l-6-0.4l0.1,7C156.6,163.3,159.6,168.6,162.7,163.2z"/>
					<polygon class="st8" points="156.7,161.1 162.7,159.5 162.6,156.6 156.6,156.2 					"/>
					<g>
						<path class="st5" d="M165.1,144.4l-0.2,11.4l-4.6,3.4l-5.2-1.8l-4.3-10.1c0,0,4.2-1.2,6.7-4.2c0,0,0.2,2.2-4,4.6
							c0,0,3.9-0.8,5.8-4.5C159.4,143.2,161.1,144.8,165.1,144.4z"/>
						<path class="st5" d="M152.1,149c0,0-2-0.3-1.6,1.5c0.6,2.3,3.4,3,3.4,3L152.1,149z"/>
						<path class="st5" d="M164.4,147.2c0,0,1.9-0.8,1.9,1c0.1,2.3-2.4,3.8-2.4,3.8L164.4,147.2z"/>
						<g>
							<g>
								<g>
									<path class="st8" d="M160.6,152.7c-0.5-0.7-1-1.2-1.2-1.3c0,0.3,0.4,0.9,0.8,1.6c0.1,0.1,0.1,0.2,0.2,0.3c0,0,0,0,0,0
										c0,0,0,0-0.1,0.1c-0.1,0.1-0.2,0.1-0.3,0.2c-0.2,0.1-0.3,0.2-0.4,0.3c0.1,0,0.3,0,0.5,0c0.1,0,0.2,0,0.3-0.1
										c0.1,0,0.4-0.1,0.6-0.2C160.9,153.3,160.7,153,160.6,152.7z"/>
								</g>
							</g>
						</g>
					</g>
					<polygon class="st5" points="147.6,198.6 135.5,183.8 145.7,162 173.2,161.8 177.9,156.7 168.7,145.2 170,142.6 185.6,158.3 
						174.2,171.3 170.6,198.3 151.3,198.3 148.2,172.9 142.6,183.6 150.5,199.1 149.5,200.7 					"/>
					<path class="st11" d="M160.9,209.4l-8,72.5h-4.2c0,0-2.9-58.7-2.2-71.4c0.4-8,4.6-12.2,4.6-12.2h19.5c0,0,4.2,4.2,4.6,12.2
						c0.7,12.7,14.8,71.4,14.8,71.4h-4.2L160.9,209.4z"/>
					<path class="st5" d="M147.6,198.5c-4.1-1.3-1.9,1.5-1.9,1.5s-2.8,3.8-2.1,4.6c1,1.1,5.9-3.9,5.9-3.9L147.6,198.5z"/>
					<polygon class="st12" points="147.1,175 148.2,172.9 151.3,198.3 170.6,198.3 174.2,171.3 178.8,166.1 174.3,160.6 
						173.2,161.8 145.7,162 142.2,169.5 					"/>
					<path class="st5" d="M165.2,161.9l-11.9,0.1c0,0,1.4,10.2,6.4,10.2C164.7,172.1,165.2,161.9,165.2,161.9z"/>
				</g>
			</g>
			<g>
				<polygon class="st13" points="155.2,225.5 166.6,225.5 160.9,209.4 				"/>
			</g>
			<path class="st14" d="M148.8,281.9c-1.5,0-10,5.1-10,5.1h14.2v-5.1H148.8z"/>
			<path class="st14" d="M190.1,281.9c1.5,0,10,5.1,10,5.1h-14.2v-5.1H190.1z"/>
		</g>
		<g>
			<g>
				<path class="st15" d="M359,208.4c0,0,3.1-6.4-1.3-8.6c-4.3-2.2-13.5,9.5-0.2,10.6L359,208.4z"/>
				<path class="st16" d="M357.4,212.1c0,0-1.6-1.9-0.3-3.2c1.3-1.3,3.8-0.6,4.1,0.5L357.4,212.1z"/>
				<path class="st15" d="M357.6,229.3l17.5-9.5c-0.4-10.2-10.8-13.7-16.2-10C351.9,214.7,353.7,220.4,357.6,229.3z"/>
				<polygon class="st17" points="361,243.2 366.9,253.3 383.2,270.1 383.6,268.2 371,250.5 365.1,234.6 				"/>
				<polygon class="st18" points="388,288.9 394.8,327.7 399.7,327.7 397.4,290.3 				"/>
				<path class="st5" d="M357.5,229.3l7.1,4.2l4-3.3l2,0l0.1-2.3l4.4-8.1l-8.3-2.2l-2.6,3.6l-1-0.4c0,0,0-3-1.3-2.7
					c-1.3,0.2-1.4,1.9-0.9,3.4l-2.2,2.3L357.5,229.3z"/>
				
					<rect x="353" y="231.7" transform="matrix(0.5086 -0.861 0.861 0.5086 -25.9771 423.1351)" class="st5" width="9.4" height="5.3"/>
				<polygon class="st8" points="356.8,230.7 361.9,232.4 362.1,232 357.6,229.3 				"/>
				<polygon class="st16" points="353,232.5 344.4,270.7 362,269.2 363.8,249.8 359.5,253.3 382.9,271.4 383.6,268.2 368.7,251.1 
					365.1,234.6 				"/>
				<path class="st18" d="M344.4,270.7c0,0-4,17.4,10.5,17.6l32.2-0.4l20.5,40.4l4.5-1.9L394,277.2l-32.1-8"/>
				<polygon class="st18" points="394.8,335 409.2,335 399.7,327.7 394.8,327.7 				"/>
				<polygon class="st18" points="410.4,335 423.8,329.4 412.1,326.4 407.6,328.3 				"/>
				<g>
					<polygon class="st19" points="371.4,272.5 373.2,269.2 398.8,274.8 398.1,278.3 					"/>
					<polygon class="st19" points="398.1,278.3 414.1,257.9 410.2,257 396.5,274.3 					"/>
				</g>
				<path class="st5" d="M382.9,271.4l0.7-3.2c0,0,5.9,1.3,7.2,4.9L382.9,271.4z"/>
			</g>
			<g>
				<g>
					<g>
						<path class="st20" d="M358.5,248.7c2,3.5,3.8,6.4,4.7,7.4c-0.5-1.2-2-4.3-4-7.8c-2-3.5-3.8-6.4-4.7-7.4
							C355,242.2,356.5,245.2,358.5,248.7z"/>
					</g>
				</g>
			</g>
		</g>
		<g>
			<g>
				<polygon points="281.4,422.5 315.2,422.5 315.2,428.9 298.3,435.6 281.4,428.7 				"/>
				<g>
					<path class="st10" d="M289.8,375.6c0,0-3-7.5-1.2-10.2c2.6-3.9,14.2-8.4,18.4-6.1c3.7,2,1.3,15.7-0.9,16.2
						C303.9,376.1,289.8,375.6,289.8,375.6z"/>
					<polygon class="st21" points="316,384.9 316,384.9 324.3,408.3 323.6,411.7 314.7,418.6 313.7,427.8 283.2,427.2 282.8,419.1 
						282.8,419.1 272,413 271.1,410 279.5,385.1 					"/>
					<path class="st5" d="M301.1,385.3l-0.1-4.9l-6.8-0.3l0.1,5.3C294.3,385.4,297.5,392.7,301.1,385.3z"/>
					<polygon class="st5" points="303.1,386.1 292.2,386.1 289.8,370.1 306.1,370.1 					"/>
					<path class="st5" d="M290.7,374.1c0,0-2.1-0.8-2.1,0.9c0,2.1,2.7,3.6,2.7,3.6L290.7,374.1z"/>
					<path class="st5" d="M305.2,374.1c0,0,2.2-0.9,2.2,0.8c0,2.1-3,3.6-3,3.6L305.2,374.1z"/>
					<g>
						<g>
							<g>
								<path class="st8" d="M298.9,379.6c-0.5-1.9-1-3.4-1.3-4c-0.1,0.7,0.2,2.3,0.6,4.2c0.1,0.4,0.3,1,0.2,0.9c0,0,0,0-0.1,0
									c-0.2,0-0.3,0-0.5,0.1c-0.3,0-0.6,0.1-0.8,0.2c-0.5,0.1-0.9,0.2-1.1,0.3c0.2,0.1,0.6,0.1,1.1,0.1c0.2,0,0.5,0,0.8,0
									c0.1,0,0.3,0,0.5,0c0.3,0,0.6,0,0.9-0.1C299.2,380.7,299.1,380.1,298.9,379.6z"/>
							</g>
						</g>
					</g>
				</g>
				<g>
					<path class="st10" d="M293.6,442.6l-2.3-5l-4,1.9l0.3,13.1C287.6,452.6,293.6,450.1,293.6,442.6z"/>
					<polygon points="315,419.1 329.4,414.7 336.3,418.4 335.5,427.6 293.6,442.6 291.4,437.6 310.4,427.6 					"/>
					<g>
						<g>
							<g>
								<path class="st22" d="M311.2,427.3c-5.7,2.8-10.4,5.4-12.2,6.5c1.9-0.7,6.8-3,12.5-5.9c5.7-2.8,10.4-5.4,12.2-6.5
									C321.7,422.2,316.8,424.5,311.2,427.3z"/>
							</g>
						</g>
					</g>
				</g>
				<g>
					<polygon points="283.4,419.3 269,415 262.2,418.6 263,427.8 304.8,442.9 307.1,437.9 288,427.8 					"/>
					<g>
						<g>
							<g>
								<path class="st22" d="M290.8,430.1c7.4,3.7,13.8,6.7,16.3,7.8c-2.3-1.4-8.6-4.7-16-8.4c-7.4-3.7-13.8-6.7-16.3-7.8
									C277.1,423.1,283.3,426.4,290.8,430.1z"/>
							</g>
						</g>
					</g>
					<path class="st10" d="M304.8,442.9l2.3-5l4,1.9l-0.3,13.1C310.8,452.9,304.8,450.3,304.8,442.9z"/>
				</g>
				<g>
					<g>
						<g>
							<path class="st23" d="M284.2,398.8c-0.7,2.2-1.2,4.2-1.2,5c0.4-0.7,1.2-2.5,1.9-4.7c0.7-2.2,1.2-4.2,1.2-5
								C285.7,394.7,285,396.5,284.2,398.8z"/>
						</g>
					</g>
				</g>
				<g>
					<g>
						<g>
							<path class="st23" d="M310.5,397.4c0.7,2.1,1.4,3.9,1.9,4.5c0-0.8-0.5-2.6-1.2-4.8c-0.7-2.1-1.4-3.9-1.9-4.5
								C309.3,393.4,309.8,395.3,310.5,397.4z"/>
						</g>
					</g>
				</g>
				<g>
					<polygon class="st19" points="315,427.8 280.6,427.8 277.1,404.2 317.5,401.6 					"/>
				</g>
			</g>
			<path class="st8" d="M295,386.8l4.3,1c0.4-0.4,0.8-0.9,1.3-1.7h-6C294.7,386.3,294.9,386.5,295,386.8z"/>
		</g>
		<g>
			<path class="st3" d="M175.3,69.5c0,9.5-7.8,11.3-7.8,18.9c0,0.7,0.1,1.5,0.3,2.1h-3.9c-0.2-0.7-0.3-1.3-0.3-2.2
				c0-8.6,7.4-9.9,7.4-19c0-3.5-1.3-5.8-4.5-5.8c-3.2,0-4.5,2.3-4.5,5.8v3.5h-4.1v-3.2c0-5.9,2.7-10,8.7-10
				C172.6,59.5,175.3,63.5,175.3,69.5z M167.8,93.8v5.4h-4.2v-5.4H167.8z"/>
		</g>
		<rect x="142.8" y="51.9" class="st24" width="47.2" height="55.1"/>
		<g>
			<path class="st25" d="M417.2,120.6c5.5,5.5,5.5,14.3,0,19.7c-5.5,5.5-14.3,5.5-19.7,0c-5.5-5.5-5.5-14.3,0-19.7
				C402.9,115.2,411.7,115.2,417.2,120.6z"/>
			<line class="st26" x1="417.2" y1="140.4" x2="428.2" y2="151.4"/>
			<line class="st25" x1="425.5" y1="148.7" x2="439.8" y2="163"/>
		</g>
		<g>
			<polyline class="st27" points="300,192.2 310,202.2 341.1,171.1 			"/>
			<rect x="293.3" y="182" class="st28" width="29.5" height="29.5"/>
		</g>
		<g>
			<path class="st24" d="M64.7,185.3c0,10.1-8.8,25.9-19.7,25.9c-10.9,0-19.7-15.8-19.7-25.9c0-10.1,8.8-18.3,19.7-18.3
				C55.9,167,64.7,175.2,64.7,185.3z"/>
			<polyline class="st26" points="52.5,208.6 52.5,215 37.5,215 37.5,208.6 			"/>
			<polyline class="st26" points="51.5,215 51.5,219.7 38.6,219.7 38.6,215 			"/>
			<path class="st26" d="M49.4,219.1c0,2.4-2,4.4-4.4,4.4c-2.4,0-4.4-2-4.4-4.4"/>
			<line class="st29" x1="45" y1="211.2" x2="45" y2="200.3"/>
			<polyline class="st26" points="37.2,188.1 45,200.3 52.9,188.1 			"/>
			<polyline class="st30" points="37.6,188.6 39.7,188.1 41.7,184.6 44.1,191.4 46.9,184.6 47.8,189.6 49.3,188 52.5,188.8 			"/>
		</g>
		<line class="st31" x1="45" y1="276.6" x2="45" y2="230.7"/>
		<polyline class="st31" points="133.5,144.6 115,144.6 115,79.9 132.5,79.9 		"/>
		<line class="st31" x1="412.1" y1="245.5" x2="412.1" y2="161"/>
		<line class="st31" x1="309.2" y1="220.9" x2="309.2" y2="355"/>
	</g>
</g>
<g id="DESIGNED_BY_FREEPIK">
</g>
</svg>
