<?xml version="1.0" encoding="utf-8"?>
<!-- Generator: Adobe Illustrator 22.0.1, SVG Export Plug-In . SVG Version: 6.00 Build 0)  -->
<svg version="1.1" id="Layer_1" xmlns="http://www.w3.org/2000/svg" xmlns:xlink="http://www.w3.org/1999/xlink" x="0px" y="0px"
	 viewBox="0 0 480.4 112.8" style="enable-background:new 0 0 480.4 112.8;" xml:space="preserve">
<style type="text/css">
	.st0{fill:#2F3D54;}
	.st1{clip-path:url(#SVGID_2_);fill:url(#SVGID_3_);}
</style>
<g>
	<g>
		<path class="st0" d="M181.7,81.5c0.3,3.3,2.9,7.4,7.5,7.4h2.7c1,0,1.9-0.8,1.9-1.9V28.6h0c-0.1-1-0.9-1.8-1.9-1.8h-8.2
			c-1,0-1.8,0.8-1.9,1.8h0v4.7c-5-6.2-13-8.8-21-8.8c-18.1,0-32.8,14.7-32.8,32.8c0,18.1,14.7,32.8,32.8,32.8v0
			C168.7,90.3,177.4,87.2,181.7,81.5L181.7,81.5z M160.8,78.8c-11.5,0-20.9-9.6-20.9-21.3c0-11.8,9.4-21.3,20.9-21.3
			c11.5,0,20.9,9.6,20.9,21.3C181.7,69.2,172.3,78.8,160.8,78.8z"/>
		<path class="st0" d="M315.9,81.5c0.3,3.3,2.9,7.4,7.5,7.4h2.7c1,0,1.9-0.8,1.9-1.9V28.6h0c-0.1-1-0.9-1.8-1.9-1.8h-8.2
			c-1,0-1.8,0.8-1.9,1.8h0v4.7c-5-6.2-13-8.8-21-8.8c-18.1,0-32.8,14.7-32.8,32.8c0,18.1,14.7,32.8,32.8,32.8v0
			C302.9,90.3,311.6,87.2,315.9,81.5L315.9,81.5z M295,78.8c-11.5,0-20.9-9.6-20.9-21.3c0-11.8,9.4-21.3,20.9-21.3
			c11.5,0,20.9,9.6,20.9,21.3C315.9,69.2,306.5,78.8,295,78.8z"/>
		<path class="st0" d="M465.9,81.5c0.3,3.3,2.9,7.4,7.5,7.4h2.7c1,0,1.9-0.8,1.9-1.9V28.6h0c-0.1-1-0.9-1.8-1.9-1.8h-8.2
			c-1,0-1.8,0.8-1.9,1.8h0v4.7c-5-6.2-13-8.8-21-8.8c-18.1,0-32.8,14.7-32.8,32.8c0,18.1,14.7,32.8,32.8,32.8v0
			C452.9,90.3,461.6,87.2,465.9,81.5L465.9,81.5z M445,78.8c-11.5,0-20.9-9.6-20.9-21.3c0-11.8,9.4-21.3,20.9-21.3
			c11.5,0,20.9,9.6,20.9,21.3C465.9,69.2,456.5,78.8,445,78.8z"/>
		<path class="st0" d="M401.7,83.5l0-30.2h0c0-17-10.7-28.5-27.9-28.5c-8.2,0-15.7,4.7-17.3,8.8c-0.5-3.2-2.2-6.5-7.4-6.5h-2.7
			c-1,0-1.9,0.8-1.9,1.9v52.7c0,0,0,0,0,0v5.6v0.1h0c0.1,1,0.9,1.8,1.9,1.8h5.6h2.7c0.1,0,0.2,0,0.4,0c0.1,0,0.1,0,0.2,0
			c0.1,0,0.1,0,0.2-0.1c0.1,0,0.1-0.1,0.2-0.1c0,0,0.1,0,0.1-0.1c0.1-0.1,0.2-0.1,0.2-0.2c0,0,0,0,0,0c0.1-0.1,0.2-0.2,0.2-0.3
			c0,0,0,0,0,0c0.2-0.3,0.3-0.6,0.4-1h0v-0.1v-3.7v-1V52.8c0-9.2,7.4-16.6,16.6-16.6s16.6,7.4,16.6,16.6l0,28.8l0,0c0,0,0,0.1,0,0.1
			v5.5v0.1h0c0.1,1,0.9,1.8,1.9,1.8h5.6h2.7l0,0c0.1,0,0.2,0,0.4,0c0,0,0.1,0,0.1,0c0.1,0,0.1,0,0.2-0.1c0.1,0,0.1-0.1,0.2-0.1
			c0,0,0.1,0,0.1-0.1c0.1-0.1,0.1-0.1,0.2-0.2c0,0,0,0,0.1,0c0.1-0.1,0.1-0.2,0.2-0.2c0,0,0,0,0,0c0.2-0.3,0.3-0.6,0.3-1
			c0,0,0,0,0,0h0v-0.1L401.7,83.5L401.7,83.5z"/>
		<path class="st0" d="M213.4,73.1c5.5,3.8,11.5,5.7,17.3,5.7c5.5,0,11.2-2.8,11.2-7.8c0-6.6-12.4-7.6-20.2-10.3
			c-7.8-2.6-14.5-8.1-14.5-17c0-13.5,12.1-19.1,23.3-19.1c7.1,0,14.5,2.4,19.3,5.7c1.6,1.2,0.6,2.7,0.6,2.7l-4.6,6.5
			c-0.5,0.7-1.4,1.4-2.7,0.6c-1.3-0.8-5.8-4-12.7-4c-6.9,0-11,3.2-11,7.1c0,4.7,5.4,6.2,11.7,7.8c11,3,23,6.5,23,20
			c0,11.9-11.2,19.3-23.5,19.3c-9.3,0-17.3-2.7-24-7.6c-1.4-1.4-0.4-2.7-0.4-2.7l4.5-6.5C211.7,72.3,212.9,72.8,213.4,73.1z"/>
	</g>
	<g>
		<defs>
			<path id="SVGID_1_" d="M76.4,31.2c0,12.4-10,22.4-22.4,22.4c-12.4,0-22.4-10-22.4-22.4c0-12.4,10-22.4,22.4-22.4
				C66.4,8.8,76.4,18.8,76.4,31.2z M24.9,59.2c-12.4,0-22.4,10-22.4,22.4c0,12.4,10,22.4,22.4,22.4c12.4,0,22.4-10,22.4-22.4
				C47.3,69.3,37.2,59.2,24.9,59.2z M83.1,59.2c-12.4,0-22.4,10-22.4,22.4c0,12.4,10,22.4,22.4,22.4c12.4,0,22.4-10,22.4-22.4
				C105.5,69.3,95.5,59.2,83.1,59.2z"/>
		</defs>
		<clipPath id="SVGID_2_">
			<use xlink:href="#SVGID_1_"  style="overflow:visible;"/>
		</clipPath>
		
			<radialGradient id="SVGID_3_" cx="-15822.1602" cy="3162.9094" r="75.2316" gradientTransform="matrix(0 -0.75 0.75 0 -2318.2075 -11802.3975)" gradientUnits="userSpaceOnUse">
			<stop  offset="0" style="stop-color:#FDB813"/>
			<stop  offset="0.6" style="stop-color:#F05E8F"/>
			<stop  offset="0.9991" style="stop-color:#F15756"/>
		</radialGradient>
		<path class="st1" d="M54,7.8c31.2,0,56.4,25.3,56.4,56.4c0,31.2-25.3,56.4-56.4,56.4c-31.2,0-56.4-25.3-56.4-56.4
			C-2.4,33.1,22.8,7.8,54,7.8z"/>
	</g>
</g>
</svg>
