<?xml version="1.0" encoding="UTF-8"?>
<svg enable-background="new 0 0 2800 1555" version="1.1" viewBox="0 0 2800 1555" xml:space="preserve" xmlns="http://www.w3.org/2000/svg">
<style type="text/css">
	.st0{fill:#2D3130;}
	.st1{fill:#AEDEF8;}
	.st2{fill:#F0AAA7;}
	.st3{fill:#FAE0D6;}
	.st4{fill:#B58A62;}
	.st5{fill:#F7AB00;}
	.st6{fill:#FFC5B6;}
	.st7{fill:#CAEFFF;}
	.st8{fill:#D3B18F;}
	.st9{fill:#FFE8E3;}
	.st10{fill:#7DA6ED;}
	.st11{fill:#C44358;}
	.st12{fill:#A3CEB5;}
	.st13{fill:#DD6475;}
	.st14{fill:#FFFFFF;}
</style>
<path class="st0" d="m1859.3 878.8c-10.9 11.1-21.8 22.1-32.7 33.2-15 15.3-30 30.6-45.1 45.9-6.5 6.6-13 13.2-19.5 19.9-0.4 0.5-0.9 0.9-1.3 1.4-0.9 1-0.7 1.8 0.5 2 4.1 0.7 8.2 1.3 12.3 2 17.5 2.8 35.1 5.6 52.6 8.4 15 2.4 30 4.7 45 7.1s30 4.8 45 7.1c15.2 2.4 30.3 4.8 45.5 7.2s30.3 4.8 45.5 7.2 30.3 4.8 45.5 7.2 30.3 4.8 45.5 7.2c8.2 1.3 16.5 2.4 24.6 4.1 42.1 8.8 73.6 32.2 94.8 69.4 12.1 21.3 17.9 44.5 17.4 69-0.7 36.9-13.9 68.9-39.8 95.5-19 19.5-42 32.3-68.5 38.5-17.3 4.1-34.8 4.6-52.4 1.9-21.3-3.3-42.6-6.7-64-10.1-17.1-2.7-34.1-5.5-51.1-8.2-15.2-2.4-30.3-4.8-45.5-7.2s-30.3-4.9-45.5-7.3c-17.2-2.7-34.4-5.4-51.6-8.1-19.1-3-38.2-6.1-57.3-9.2-17.1-2.7-34.1-5.4-51.2-8.1-6.5-1-13-2-19.4-3.1-0.6-0.1-1.3-0.3-1.9-0.4-8-1.8-13.1-7.7-13.8-15.8-0.1-1.1 0-2.2 0-3.4 0-0.5-0.4-0.9-1-0.8-1.1 0.3-2.1 0.7-3.2 1.1-12.8 4.7-26 6.8-39.6 5.8-5.1-0.4-10.2-1.3-15.2-2.1-11.1-1.7-22.1-3.7-33.2-5.3-8.5-1.3-16.5-3.7-24.2-7.3-2.3-1.1-4.4-1.3-6.9-1-7.5 0.9-15 1-22.5-0.2-1.1-0.2-2.2-0.3-3.3-0.4-1.2-0.2-2.2 0.1-3 1-0.4 0.5-0.9 0.9-1.4 1.4-16.6 16.9-33.2 33.8-49.8 50.7-16.9 17.2-33.9 34.5-50.8 51.7-3.4 3.5-4.2 4.7-8.8 0.2-29.3-28.9-58.6-57.7-88-86.5-19.7-19.4-39.5-38.8-59.2-58.2-1.9-1.9-4-3.7-5.8-5.7-1.4-1.5-2.7-1.9-4.7-1.1-2.2 1-4.5 1.7-6.8 2.4-11.9 3.8-24.1 4.5-36.5 4-9-0.4-17.8-2.1-26.6-3.4-13.1-2-26.2-4.1-39.3-6.2s-26.2-4.1-39.3-6.2c-15.2-2.4-30.3-4.8-45.5-7.2s-30.3-4.8-45.5-7.2-30.3-4.8-45.5-7.2c-11-1.8-22.1-3.3-33.1-5.6-43.1-8.8-80.7-39.1-99-81.7-7.9-18.5-11.7-37.9-11.1-58 1.5-52.6 30.8-95 71.2-117.7 16.4-9.2 33.9-14.9 52.6-17 13.1-1.5 26.2-1 39.2 1.2 15.1 2.5 30.3 4.8 45.5 7.2s30.3 4.8 45.5 7.2c8.7 1.4 17.4 2.8 26.1 4.1 0.6 0.1 1.3 0.1 1.9 0.2 2 0.5 3.3-0.3 4.6-1.7 4.7-4.8 9.4-9.6 14.1-14.4 14.8-15.1 29.6-30.1 44.4-45.2 21.3-21.7 42.6-43.3 63.9-65 0.6-0.6 1.1-1.1 1.6-1.8 0.2-0.2 0.2-0.6 0.1-0.9-0.1-0.2-0.5-0.4-0.8-0.4-0.6 0-1.3 0.1-1.9 0.2-11.3 1.1-22.7 1.5-34 1.2-32.7-0.8-64.1-7.7-94.1-20.4-74.7-31.5-130-94.9-151.1-173.2-4.4-16.2-7.1-32.8-8.3-49.6-1.1-14.4-0.9-28.8 0.5-43.1 4-40.3 16.5-77.7 37.7-112.2 1.3-2 2.5-4.1 3.9-6.1 0.9-1.3 1.8-2.6 1.4-4.4-0.3-1.6 0.9-2.7 1.7-3.8 4.9-6.5 9.8-13 14.7-19.5 13.9-18.4 27.8-36.8 41.7-55.1 0.8-1 1.5-2.1 2.4-3 1-1.1 2.1-1.3 3.4-0.7 1 0.5 1.9 1.2 2.9 1.7 7.5 3.8 16.4 1.8 21.7-4.6 5.4-6.6 5.3-16-0.2-22.6-0.6-0.7-1.3-1.4-2-2.1-2.4-2.4-2.4-2.8-0.3-5.7 6-8.1 12.1-16.1 18.2-24.1 2-2.7 4.1-5.3 6.1-8 0.5-0.6 1.1-1.2 1-2.1 0.6 0.3 1.6 0.3 2.5 0.3 0.4 1.2 1.4 1.7 2.3 2.4 16 12.1 32 24.1 47.8 36.2 2.2 1.7 4.1 1.9 6.7 1.4 18.3-3.4 36.8-4.9 55.4-4.2 52.7 2.1 100.8 18.2 143.6 49.1 54.8 39.7 89.2 93 103.4 159.1 4.6 21.2 6.2 42.7 5.4 64.4-0.1 3.5-0.5 7-0.7 10.5 0 1-0.7 2.4 0.6 3 1 0.4 1.5-0.9 2.2-1.5 6.5-6.6 13-13.2 19.6-19.8 17-17.3 34.1-34.7 51.1-52.1 13.1-13.4 26.2-26.7 39.3-40.1 7-7.1 14.2-13.8 22.6-19.2 9-5.8 18.6-9.9 29.3-11.3 1.1-0.1 2.2-0.3 3.3-0.3 14.4-0.7 28.8-1.4 43.1-2.1 11.2-0.6 22.4-1.1 33.5-1.9 10.4-0.8 20 1.3 29.3 5.8 10 4.9 18.8 11.5 26.9 19.1 5.7 5.4 11.2 10.9 16.8 16.4 4.6 4.5 9.1 9 13.7 13.4 1 1 1.7 0.7 1.9-0.7 0.6-4.4 1.2-8.9 1.8-13.3 0.6-4.6 1.1-9.2 1.8-13.8 0.4-2.6 1.2-3.2 3.9-3 3.3 0.3 6.7 0.7 10 1.2 14.8 1.9 29.5 3.7 44.3 5.6 0.3 0 0.6 0.1 1 0.1 2.4 0.4 3.1 1.1 3.2 3.4v2.4c-0.3 8.6 6.3 19.2 18.9 20.7 7.8 0.9 18.8-3.5 22.3-15.2 0.2-0.8 0.3-1.6 0.5-2.3 0.7-2.5 1.5-3.1 4.1-2.8 5.2 0.6 10.5 1.3 15.7 2l35.7 4.5c11.6 1.5 23.2 3 34.7 4.4 5.7 0.7 11.4 1.4 17.1 2.1 0.5 0.1 1 0.1 1.4 0.1 3 0.5 3.6 1.2 3.5 4 0 0.8-0.1 1.6-0.2 2.4-1.4 10.9-2.7 21.9-4.1 32.8-0.8 6.7-1.7 13.3-2.5 20-0.1 1-0.2 1.9-0.4 2.8-0.3 1.4-1.1 2.3-2.6 2.3-1 0-1.9 0-2.9 0.2-4.8 0.8-8.2 4.5-8.6 9-0.4 4.7 2.1 8.7 6.7 10.5 0.6 0.2 1.3 0.3 1.9 0.5 1.8 0.6 2.3 1.3 2.2 3.2-0.3 4-0.8 8-1.3 11.9-1.8 14.8-3.7 29.5-5.6 44.3-1.8 14-3.6 27.9-5.3 41.9-0.4 3.3-0.8 6.7-1.3 10-0.3 1.9 0.3 3.3 1.7 4.7 9.2 8.9 18.3 17.9 27.4 26.9s18.2 17.9 27.4 26.9c3.1 3 3.1 3.8-0.1 7-3.2 3.3-6.5 6.6-9.8 9.9-17 17.3-34.1 34.7-51.1 52"/>
<path class="st1" d="m1377.5 339.2c-0.3-0.4-0.5-0.9-0.8-1.3-0.7-0.8-1.4-1.7-2.2-2.5-19.6-20.7-42.1-37.2-67.7-49.6-35.4-17.1-72.7-24.8-112-23.2-1.8 0.1-3.5 0.3-5.2 0.6-0.2 0-0.6 0.4-0.6 0.6 0 0.3 0.2 0.6 0.4 0.8l0.3 0.3c1.2 1.1 2.8 1.7 3.5 3.2 0.8 1.9-0.8 3.3-1.3 4.9-1.1 3.5 0.1 7.2 3 9.4 2.8 2 6.7 2.1 9.5 0.1 0.7-0.4 1.2-1.1 1.8-1.6 2-1.6 2.5-1.6 4.6-0.1 0.5 0.4 1 0.8 1.5 1.1 11.2 8.5 22.5 17 33.7 25.5 0.6 0.5 1.3 0.9 1.9 1.5 2.1 1.8 2.3 2.7 0.8 4.9-1 1.4-2.1 2.8-3.2 4.2-2.2 2.9-4.5 5.9-6.6 8.8-0.3 0.5-1.1 1-0.4 1.6 0.5 0.5 1.2-0.1 1.7-0.4 0.7-0.4 1.4-0.8 2.1-1.1 24.7-12.7 50.7-16 77.8-9.9 3 0.7 5.9 1.3 8.9 1.8 15.5 2.6 29.8 8.3 43 16.9 1.1 0.7 2.1 1.4 3.2 2.1 0.6 0.4 1.2 0.4 1.8 0.1-0.2 0.7 0.3 1.1 0.9 1.3l0.1 0.3c-0.3-0.1-0.5-0.3-0.5-0.3z"/>
<path class="st2" d="m1020.8 398.9c-2.2-0.2-3.4 1.5-4.8 2.8-26.3 26.1-36.9 57.6-32 94.4 7.5 39.3 29.5 67 66.4 82.5 12.5 5.2 25.7 7.7 39.3 7.5 0.9 0 1.9-0.2 2.8-0.3 0.1 0 0.3-0.5 0.3-0.7 0-0.1-0.1-0.3-0.2-0.4-0.6-0.2-1.2-0.5-1.8-0.6-2.7-0.4-5.4-0.7-8.1-1.3-61.4-12.5-96-68.6-89.8-122.1 2.6-22.7 11.3-42.8 25.9-60.4 0.5-0.6 1.2-1 1.7-1.5-0.6 0.2 0.3 0.5-0.2 0.2-0.3-0.2-0.3-0.3 0.1-0.3 0.9-0.2-0.1-0.2 0.4 0.2z"/>
<path class="st2" d="m1153.5 682.2l0.2-0.1h-0.3c0.2-0.8-0.3-1.2-0.8-1.6-1.4-1.3-3-2.4-4.4-3.7-33.7-29.2-47.2-75-33.9-117.6 11.6-37.1 36.5-61.5 73.2-74.1 1.8-0.6 3.7-1.1 5.5-1.7 0.5-0.2 1.2-0.1 1.4-0.8-0.5 0-1-0.2-1.4-0.1-3.8 0.6-7.6 1.1-11.3 2-51.9 12.3-85.6 59.1-82.8 110 1.2 22.6 9 42.7 22.9 60.5 8.6 11.2 19.4 20.1 31.7 27.2z"/>
<path class="st1" d="m1420.4 408.5c0-0.3 0.4-0.8-0.3-0.8 0.2 0.3 0.3 0.5 0.3 0.8 0.2 1.5 0.2 3.1 0.4 4.7 2.3 16.4 1.1 32.5-3.6 48.3-1.9 6.3-4.3 12.4-7.3 18.2-0.7 1.3-0.7 2.3 0.2 3.5 1 1.2 1.9 2.6 2.8 3.9 2.7 3.8 2.7 3.9-0.6 7.1-0.5 0.4-0.9 0.9-1.3 1.4-3.4 3.9-5 8.5-4.4 13.7 1.6 13 16.4 20.4 28.1 12.9 1.3-0.9 2.1-1.8 2.2-3.4 0.2-4 0.7-8 0.9-11.9 1-22.6-1.1-45-6.5-67-2.4-9.8-5.4-19.4-9.1-28.8-0.3-1-0.2-2.4-1.8-2.6z"/>
<path class="st3" d="m1408.3 1150.2c-0.3 0.2-0.3 0.4 0 0.5 0 0 0.1-0.1 0.1-0.2 0.2-0.6 0.1 0.3-0.3-0.2 0.2-1.3-0.4-2.5-0.7-3.7-3-11.7-4.2-23.6-2.4-35.6 1.1-7.7 2.3-15.5 3.5-23.2 2.4-15.2 4.8-30.3 7.2-45.5 1.4-8.7 2.4-17.4 4.2-26 6.7-31.5 24.9-54.2 54-67.9 16.9-8 34.8-10.3 53.3-7.4 8.7 1.4 17.4 2.8 26.1 4.1 1.4 0.2 2.8 0.8 4.2 0.3 0.3-2-1.4-2.7-2.4-3.8-21.7-23.3-55.2-33.2-86.4-26.4-33.9 7.4-61.2 34.4-68.4 68.3-2.3 10.9-3.8 22-5.6 33.1-3.2 19.7-6.2 39.5-9.4 59.2-2.6 16-1 31.6 4.8 46.7 3.7 9.8 9.1 18.7 15.9 26.6 0.7 0.5 1.1 1.6 2.3 1.1z"/>
<path class="st1" d="m1983 744.9c0.7-0.9 1.6-1.6 2.4-2.4 11-11.2 22-22.4 33-33.5 9.1-9.2 18.2-18.5 27.2-27.7 1.8-1.9 1.8-2 0-3.8l-1.7-1.7c-12.4-12.2-24.9-24.4-37.3-36.7-3.5-3.5-7.1-6.9-10.6-10.4-0.6-0.5-1.2-1.5-1.9-1.1-0.5 0.3-0.7 1.4-0.8 2.1-0.2 1.4-0.3 2.9-0.5 4.3-0.5 3.5-1.3 4.2-4.6 3.8-4.8-0.5-9.5-1.1-14.3-1.7-11.6-1.5-23.2-2.9-34.7-4.4-11.7-1.5-23.5-3-35.2-4.5-11.1-1.4-22.2-2.8-33.3-4.2-11.4-1.4-22.8-2.8-34.3-4.3-11.7-1.5-23.5-3-35.2-4.4-7.1-0.9-14.3-1.8-21.4-2.8-3.1-0.4-3.8-1.3-3.4-4.5 0.4-3.5 0.9-7 1.4-10.5 2.1-16.5 4.1-33 6.1-49.5l6.3-49.5c2.5-20 5-40 7.6-60 0.3-2.5-0.2-4.2-2-5.9-10.5-10.1-20.8-20.4-31.2-30.6-5.9-5.7-12.2-10.8-19.2-15.1-5.7-3.6-11.8-6.4-18.3-8.3-6-1.7-12-2.1-18.1-1-11 2.1-18.7 8.5-23.8 18.3-0.6 1.1-1 2.3-1.5 3.5-0.3 0.6-0.4 1.2-0.7 1.8-1 1.9-2.8 2.2-4.3 0.6-2-2.1-3.8-4.4-5.9-6.3-9.7-8.7-21.3-13.5-34.8-14-4 0.4-8.1 0.5-12.2 1.5-7.7 1.8-14.8 5.1-21.4 9.3-6.8 4.3-12.9 9.4-18.5 15.1-10.5 10.6-20.9 21.2-31.3 31.8-22 22.4-43.9 44.7-65.9 67.1-7.4 7.5-14.8 15.1-22.2 22.6-1.2 1.2-2.1 2.4-2.3 4.1-1 6-2 12-3.1 17.9-0.3 1.7-0.1 3.1 1 4.5 0.7 0.9 1.4 1.8 1.9 2.7 1.1 1.7 0.9 2.8-0.8 4.1-1 0.8-2 1.6-3.1 2.2-2.3 1.3-3.5 3.2-4 5.7-0.1 0.6-0.4 1.2-0.6 1.8-27.9 92.1-105.7 164.9-206.4 181.9-3.1 0.5-5.6 1.7-7.8 4-12.7 13.1-25.5 26.1-38.3 39.1-26.5 26.9-52.9 53.8-79.4 80.7-2.5 2.5-4.9 5-7.4 7.6-0.9 0.9-0.5 1.7 0.8 1.9 5.8 1 11.7 1.9 17.5 2.8 19.1 3 38.2 6 57.3 9 17.4 2.7 34.7 5.7 52.1 8.2 22.4 3.2 41.2 13.1 56.8 29.4 1 1 1.7 2.6 3.1 2.9 1.6 0.3 2.9-1 4.3-1.7 16.9-8.3 34.7-11.8 53.5-9.4 4.9 0.6 9.9 1.1 14.7 2.3 4.6 1.2 8.1 0.3 10.9-3.4 22.9-19.7 49.1-27.9 79.2-23.1 9 1.4 18 2.8 27 4.2 6.3 1 12.7 1.8 18.9 3.3 21.1 5 38.4 16.2 52 33.2 1.6 2 3.3 3.2 5.9 3.6 7.2 1 14 3.2 20.6 6.3 3 1.4 5.9 2 9.2 1.6 8.5-0.9 16.9-0.6 25.3 0.8 12.3 2.1 24.6 4.1 36.9 5.8 18.1 2.5 34 9.7 48 21.4 0.9 0.7 1.7 1.5 2.6 2.2 0.6 0.5 1.2 0.4 1.7-0.1 0.5-0.4 0.8-1 1.3-1.4 5.5-5.7 12.1-8.1 20-6.9 4.6 0.7 9.2 1.4 13.7 2.1 2 0.3 3.6-0.1 5.1-1.7 3.8-4.1 7.8-8 11.8-12 24.6-25 49.1-50 73.7-75 4.7-4.8 9.4-9.6 14.1-14.4"/>
<path class="st4" d="m2229.4 1177.9c0-18.1-2.7-33.6-8.2-48.6-16.2-43.6-53.2-75.3-96.4-84.9-7.7-1.7-15.4-2.7-23.2-4-15.2-2.4-30.3-4.8-45.5-7.2-15.3-2.4-30.6-4.9-45.9-7.3-15-2.4-30-4.7-45-7.1s-30-4.7-45-7.1c-15.3-2.4-30.6-4.9-45.9-7.3-13.1-2.1-26.2-4.2-39.3-6.2-15.2-2.4-30.3-4.8-45.5-7.2-13.1-2.1-26.2-4.2-39.3-6.3-5.4-0.9-10.7-1.8-16.1-2.4-10.2-1.3-17.8 6.3-18.9 14.4-1.1 7.6-2.4 15.2-3.6 22.7-0.3 1.6-0.5 3.2-0.7 4.7-0.1 0.9 0.5 1.5 1.4 1.5 0.8 0 1.6-0.1 2.4-0.3 16-2.9 32.1-3.5 48.3-1.7 5.3 0.6 10.4 1.5 15.5 3.1 1.8 0.6 3.6 1.2 5 2.7 1.5 1.6 1.4 3.7-0.4 5-1.2 0.8-2.5 1.4-3.8 2.1-10.6 5.5-20.2 12.4-28.5 20.9-7.4 7.6-13.6 16.2-18.8 25.4-4.1 7.2-8 14.6-11.8 22-8 15.7-16.4 31.1-28.3 44.3-0.9 1-1.3 2.1-1.5 3.4-0.9 5.8-1.8 11.7-2.8 17.5-2.8 17.7-5.6 35.4-8.4 53-0.5 3.5-1.2 6.9-1.5 10.4-0.5 6.6 3.2 11.4 9.6 12.9 0.9 0.2 1.9 0.4 2.8 0.6 16.4 2.6 32.8 5.2 49.3 7.8 17.2 2.7 34.4 5.4 51.6 8.1s34.4 5.5 51.6 8.2c15.5 2.5 30.9 4.9 46.4 7.4 15 2.4 30 4.7 45 7.1s30 4.7 45 7.1c15.2 2.4 30.3 4.8 45.5 7.2 15.3 2.4 30.7 4.7 45.9 7.3 18.7 3.2 37.2 2.9 55.7-1.5 57.6-13.6 102.9-65 103.3-127.7z"/>
<path class="st4" d="m828.7 1003c0.2 4.5 0.2 9 0.7 13.4 2.3 21.4 9.1 41.2 20.9 59.1 21.6 32.6 51.5 52.7 90.1 59.7 8.2 1.5 16.4 2.6 24.6 4 15.2 2.4 30.3 4.9 45.5 7.3s30.3 4.8 45.5 7.2c17.1 2.7 34.1 5.5 51.1 8.2 17.7 2.8 35.4 5.6 53 8.4 3 0.5 6 0.8 9 1.2 0.1 0 0.4-0.1 0.4-0.2 0-0.3 0-0.7-0.1-0.8-1.1-0.7-2.1-1.4-3.2-2-14.5-8.8-26-20.6-34.2-35.5-9.7-17.6-13.7-36.4-11.2-56.4 1.1-8.6 2.6-17.1 3.9-25.6 3.5-22.1 6.9-44.2 10.6-66.3 4-24.5 16.1-44.2 35.5-59.5 10.4-8.2 22.2-13.9 35.1-17.1 1.1-0.3 2.1-0.6 3.2-1 0.1 0 0.1-0.6-0.1-0.8-0.8-0.7-1.8-0.6-2.7-0.7-11.4-1.8-22.7-3.6-34.1-5.4-15-2.4-30-4.7-45-7.1-14.8-2.3-29.7-4.7-44.5-7-15.2-2.4-30.3-4.9-45.5-7.3-17.1-2.7-34.1-5.3-51.2-8.1-17.2-2.8-34.4-2.6-51.5 1.2-60.8 13.2-106.1 67.6-105.8 131.1z"/>
<path class="st5" d="m1986.2 632.8c1.1 0.1 1.5-0.3 1.8-1.8 0.1-0.5 0.1-1 0.2-1.4 1-8.1 2-16.2 3.1-24.3l4.5-35.7c1.4-11.4 2.9-22.8 4.3-34.3 0.9-7.5 1.8-14.9 2.8-22.4 0.2-1.3-0.2-2.2-1.4-2.7-0.7-0.3-1.5-0.7-2.1-1.1-5.3-3.6-7.6-8.5-6.8-14.8 0.8-6.1 4.3-10.2 10.1-12.3 0.7-0.3 1.5-0.6 2.3-0.6 1.6-0.2 2.1-1.1 2.2-2.6 2-16.5 4.1-33 6.2-49.5 0.1-0.5 0.2-1 0.1-1.4 0-0.7-0.4-1.2-1.2-1.3-0.6-0.1-1.3-0.2-1.9-0.3-11.4-1.5-22.8-3-34.2-4.4-20.1-2.6-40.3-5.1-60.4-7.6-4.1-0.5-4-0.5-5.8 3.5-4.5 10.1-12.4 15.8-23.5 16.2-14.6 0.5-25.2-10.6-26.6-22.7-0.5-4.1-0.6-4-4.4-4.6-0.6-0.1-1.3-0.2-1.9-0.3-7.1-0.9-14.3-1.8-21.4-2.7-7.5-0.9-14.9-1.9-22.4-2.8-1.9-0.2-2.4 0-2.6 1.8-0.6 4-1.1 7.9-1.6 11.9-1.5 11.6-2.9 23.2-4.4 34.7-1.4 11.3-2.8 22.5-4.2 33.8-1.4 11.4-2.9 22.8-4.3 34.3-1.5 11.6-2.9 23.2-4.4 34.7-1.5 11.6-2.9 23.2-4.4 34.7-0.7 5.7-1.5 11.4-2.2 17.1-0.3 2.6-0.1 2.9 2.7 3.3 6.5 0.9 13 1.7 19.5 2.5 8.9 1.1 17.8 2.2 26.6 3.4 11.3 1.4 22.5 2.9 33.8 4.3 11.4 1.4 22.8 2.8 34.3 4.3 11.7 1.5 23.5 3 35.2 4.4 11.6 1.5 23.2 2.9 34.7 4.4 5.8 0.8 11.5 1.5 17.7 2.3z"/>
<path class="st3" d="m1543.3 1143.3c0.2 4.5 0.3 8.9 1 13.4 3.8 23.3 14.9 42.3 33.2 57.1 13.9 11.2 30 17.4 47.8 19.3 12 1.3 23.6 0.1 35.1-3.1 4-1.1 7.9-2.6 11.7-4.4 1.3-0.6 2-1.4 2.2-2.9 0.2-1.7 0.6-3.5 0.8-5.2 1.5-9.3 3-18.6 4.4-27.9 2.4-15.1 4.8-30.3 7.2-45.4 1.4-9 2.9-18 4.3-27 2.4-15.2 4.8-30.3 7.2-45.5l6.3-39.3c2.1-13.1 4.2-26.2 6.4-39.3 0.2-1.5-0.1-2.5-1.2-3.4-0.7-0.6-1.4-1.3-2.2-1.9-23.3-19.2-49.9-25.9-79.4-19.8-35 7.2-62.7 35.8-69.2 71-2.1 11.5-3.8 23-5.6 34.5-2.4 15.3-4.9 30.6-7.3 45.9-1.4 8-3 15.9-2.7 23.9z"/>
<path class="st3" d="m1229 910.1c-6.4 0-12.8 0.7-19.1 2.1-34.1 7.3-61.6 34.6-68.6 68.7-2.8 13.4-4.5 27.1-6.7 40.7-2.4 15.1-4.8 30.3-7.2 45.5-1.5 9.3-2.6 18.6-1.6 28.2 2.3 22.1 11.3 40.8 27 56.3 13.8 13.5 30.4 21.5 49.5 24.5 18.2 2.9 35.7 0.7 52.4-7 1.8-0.8 4.5-1.2 5.1-3.2 0.5-1.7-1.7-3.3-2.7-4.8-12.2-19-17.1-39.8-14.7-62.2 1.2-10.8 3.3-21.5 5-32.2 2.4-15.3 4.8-30.6 7.3-45.9 1-6.5 1.9-13 3.3-19.4 5.4-23.8 18.2-42.7 38-56.9 3.5-2.5 3.5-2.3 0.5-5.6-0.2-0.2-0.4-0.5-0.7-0.7-18.4-19-40.9-27.5-66.8-28.1z"/>
<path class="st5" d="m1425.3 530.2c-9.1 0.1-17.1-4.5-21-12.2-4.3-8.3-3.6-16.3 1.6-24 0.9-1.3 2.8-2.2 2.5-3.8-0.3-1.4-1.5-2.7-2.5-4-16.6-22.9-33.2-45.8-49.9-68.7-3.8-5.3-2.6-4.9-7.8-1.2-35.5 25.1-71 50.3-106.5 75.4-11 7.8-21.9 15.5-32.9 23.3-2.1 1.5-2.1 1.7-0.7 3.8 0.5 0.8 1.1 1.6 1.7 2.3 11.3 15.5 22.6 31.1 33.8 46.6 21.8 30 43.6 60.1 65.4 90.1 0.8 1 1.5 2.1 2.3 3.1 0.5 0.7 1.2 1 2.1 0.4 0.7-0.5 1.3-0.9 2-1.3 9.8-6.9 19.6-13.9 29.4-20.8 0.7-0.5 1.3-0.9 1.9-1.4 0.9-0.6 1.2-1.5 0.9-2.5-0.2-0.6-0.4-1.2-0.5-1.9-1.1-6.5 2.5-12.6 8.7-14.8 4-1.5 8-1.1 11.5 1.2 1.9 1.2 3.4 1.4 5.1-0.2 0.6-0.5 1.3-0.9 2-1.4 26.6-18.9 53.3-37.7 79.9-56.6 0.8-0.6 1.6-1.1 2.3-1.7 1.6-1.2 1.7-1.5 0.6-3.1-2-2.9-4.1-5.7-6.2-8.6-4.5-6.2-9-12.4-13.5-18.6-1.3-1.8-1.5-1.9-3.6-1.1-2.9 1-5.8 1.7-8.6 1.7z"/>
<path class="st6" d="m1104.7 365.8c-8.7-0.1-17.3 1-25.7 3.1-56.6 14.1-90.1 69.3-79.6 124 7.7 39.9 37 71.7 76.2 82.8 5.2 1.5 10.6 2.5 16 3.2 1.8 0.2 2.3-0.2 2.6-2 0.3-2.1 0.5-4.1 0.9-6.2 4.3-25.9 16-47.7 35.5-65.3 16.7-15.1 36.3-24.3 58.5-27.7 1.6-0.2 3.1-0.6 4.7-0.9 0.6-2-0.8-3.3-1.5-4.8-8.8-19.6-11.7-40.1-8.9-61.3 0.3-2.2 0.7-4.4 1.1-6.6 0.3-1.6-0.1-2.8-1.2-3.9-0.6-0.5-1.1-1.2-1.6-1.7-21.3-21.4-47-32.1-77-32.7z"/>
<path class="st1" d="m1204.9 728.3c15.9 0 31.7-1.6 47.2-5 61.9-13.3 110.6-46.2 146.4-98.3 5.6-8.2 10.6-16.8 15-25.7 0.4-0.7 0.6-1.5 0.8-2.2 0-0.1-0.6-0.5-0.7-0.4-1.2 0.7-2.5 1.5-3.6 2.3-12.5 8.9-25.1 17.8-37.6 26.6-2.9 2.1-3.1 2-5.8-0.2-0.6-0.5-1.2-1.1-1.9-1.5-5.3-3.2-11.9 0-12.7 6.1-0.2 1.8 0.3 3.4 1.1 5.1 1.3 2.9 1.1 3.3-1.4 5.2-0.6 0.5-1.3 0.9-2 1.4-11.1 7.9-22.2 15.7-33.3 23.6-0.9 0.6-1.8 1.3-2.8 1.9-2 1.2-2.8 1.1-4.5-0.7-0.2-0.2-0.4-0.5-0.6-0.8-1.3-1.4-1.6-1.5-3 0.1-4.3 4.8-8.8 9.3-13.9 13.2-26.5 20.7-56.3 28.7-89.6 23.1-6.6-1.1-13.2-2.6-19.7-3.9-42.8-8.8-77.2-43-86.3-85.7-1.3-6.3-2-12.6-2.5-19-0.2-2-0.5-2.2-2.3-2.3-1.1-0.1-2.2 0-3.4-0.1-7.7-0.2-15.3-1-22.8-2.7-58.2-13.4-94.1-68.2-86.2-124.6 3.6-25.6 14.8-47.4 33.3-65.4 5.5-5.4 11.6-10 18.1-14.2 2-1.3 2-1.7 0.2-3.1-5.3-4.1-10.7-8.1-16.1-12.2-3.5-2.6-3.3-2.6-5.7 1.1-0.1 0.1-0.2 0.3-0.3 0.4-21.7 34.4-33.8 71.9-36.1 112.5-1.1 19.6 0.4 39 4.3 58.2 9.4 46.1 30.5 86.1 64 119.1 45.7 44.7 100.7 67 164.4 68.1z"/>
<path class="st6" d="m1221.3 484.9c-3 0.1-6.1 0.1-9.1 0.4-3.5 0.4-7 0.9-10.4 1.5-43.8 7.9-83.1 44.7-87.1 97.8-1.6 21.6 3.3 41.9 14.1 60.7 22.1 38.3 64.5 58.2 106.6 52.6 22.7-3 42.5-12.6 59.2-28.2 2.8-2.6 5.4-5.5 7.9-8.3 1.5-1.7 1.5-2 0.3-3.7-6.3-8.7-12.6-17.3-18.9-26-0.2-0.3-0.4-0.5-0.6-0.8-0.6-0.7-1.2-0.9-2.1-0.4-0.8 0.5-1.6 1-2.5 1.3-4.1 1.5-8.6 0.1-11-3.4-2.5-3.5-2.2-8.2 0.6-11.5 0.6-0.7 1.4-1.3 2.1-2 0.5-0.5 0.5-1.1 0.1-1.7-0.4-0.5-0.7-1.1-1.1-1.6-14.7-20.3-29.5-40.6-44.2-60.9-1.8-2.4-1.9-3-4.8-0.7-0.5 0.4-1.1 0.7-1.6 1-8.3 4.4-18.5 2.2-24-5.4-5.7-7.7-4.6-18.3 2.4-24.9 0.8-0.8 1.7-1.4 2.6-2.1 0.5-0.4 1.1-0.8 1-1.5-0.6-2.9 1.4-3.9 3.3-5.2l30.9-21.9c1-0.7 2.1-1.5 3.1-2.3 0.4-0.3 0.7-0.7 0.3-1.2-0.1-0.2-0.5-0.4-0.7-0.5-5.6-0.6-11-1.2-16.4-1.1z"/>
<path class="st5" d="m1085.4 251.2c-0.5 14.9-11.9 22.6-21.6 22.9-3.9 0.1-7.7-0.5-11.2-2.2-1.2-0.6-2.1-0.5-2.9 0.7-0.4 0.7-1 1.3-1.5 1.9-17.3 22.8-34.5 45.7-51.8 68.5-0.7 0.9-1.3 1.8-2 2.7-0.4 0.6-0.3 1.3 0.2 1.7 0.8 0.7 1.7 1.4 2.6 2.1 9.1 6.9 18.1 13.7 27.2 20.5l11.1 8.4c1.3 1 2.4 1.3 4 0.6 6-2.7 12-5.2 18-8 18.9-8.7 38.8-12 59.4-9.7 23.4 2.6 44 11.8 61.8 27.3 1 0.8 1.9 1.7 2.9 2.6 0.7 0.6 1.5 0.8 2.1 0 3.5-4.8 7.5-9.1 10.1-14.5 5.7-11.8 13.2-22.3 22.8-31.2 4.7-4.4 8.9-9.2 12.7-14.3 2.4-3.2 4.8-6.4 7.2-9.6 1.7-2.3 3.5-4.6 5.2-6.9 1.9-2.6 1.9-2.7-0.5-4.5-0.3-0.2-0.5-0.4-0.8-0.6-9.1-6.8-18.2-13.6-27.2-20.6-2.7-2.1-5.1-3.7-8.3-1-9.2 3.8-18.9-2.9-18.6-12.8 0-1.4 0.4-2.8 0.7-4.2 0.2-0.9 0-1.6-0.7-2.1-1-0.8-2-1.6-3-2.3-26.2-19.8-52.3-39.5-78.5-59.3-0.9-0.7-1.8-1.3-2.7-2-0.6-0.4-1.2-0.2-1.7 0.3-0.5 0.6-1 1.2-1.5 1.9-6.1 8-12.1 16.1-18.2 24.1-0.4 0.5-0.7 1-1.1 1.5-0.8 1-1 2-0.1 3 0.5 0.6 1 1.2 1.5 1.9 2.9 3.9 4.2 8.5 4.4 13.2z"/>
<path class="st6" d="m1203 430.2c0.2 5.4 0.6 11.6 1.7 17.8 1.7 9 4.4 17.7 8.2 26 1 2.1 2.1 3.2 4.6 3.4 5.1 0.3 10.1 1.4 15.1 2.6 3.6 0.8 7.2 1.4 10.8 2.1 0.9 0.2 2 0.4 2.8-0.2 3-2.1 6-4.2 8.9-6.4 0.4-0.3 0.3-0.9-0.3-1-1.1-0.3-2.2-0.6-3.2-0.9-10.4-3.3-14.3-13.9-12.7-21.5 2-9.2 9.9-15.6 19.5-15 10.3 0.5 17 9 17.5 16.7 0.1 1.8 0 3.5-0.1 5.3 0 0.4 0.2 0.9 0.3 1.3 0.5-0.1 1-0.2 1.3-0.4 6.7-4.7 13.3-9.4 20-14.1 1.2-0.9 1.2-1.2 0.5-2.8-0.4-0.9-0.9-1.7-1.2-2.6-5-14.2 6-25.7 17.6-25.5 5.6 0.1 10.2 2.3 14 6.3 1.5 1.6 1.6 1.6 3.2 0.5 6.3-4.4 12.5-8.9 18.8-13.3 1.6-1.2 1.7-1.3 0.8-3.6-0.5-1.2-0.7-2.5-0.7-3.7 0-5.2 3.7-9.2 8.8-9.5 4.9-0.3 9.2 3.2 9.8 8 0.6 5.3-2.5 9.6-7.5 10.6-0.8 0.1-1.6 0.1-2.4 0.2s-1.1 0.6-0.8 1.3c0.5 0.8 1 1.6 1.6 2.4 14.4 19.8 28.7 39.6 43.1 59.4 0.6 0.8 1.1 1.5 1.8 2.3 0.5 0.6 1.1 0.5 1.5-0.2l1.5-3c8.8-20.4 11.4-41.5 7.2-63.3-11.4-59.5-69.2-96.9-127.3-84.6-45.5 9.4-84.2 49.6-84.7 105.4z"/>
<path class="st7" d="m948.3 494.8c0.2 17.7 1.9 35.1 5.5 52.4 11.1 52.6 35.8 97.7 75 134.4 46.2 43.4 101.3 66.6 164.6 70.1 23.8 1.3 47.3-1.2 70.5-6.6 85.1-19.9 154.8-82.6 183.5-165.2 0.8-2.4 1.6-4.9 2.3-7.3 0.1-0.2 0-0.7-0.2-0.8-0.2-0.2-0.6-0.2-0.8-0.1-0.4 0.2-0.8 0.5-1.2 0.8-6.5 4.6-13 9.3-19.6 13.8-3 2-5.1 4.6-6.6 7.9-12.9 28.3-30.6 53.2-53.3 74.4-41 38.3-89.8 59.4-145.6 63.9-21.3 1.7-42.5 0.5-63.5-3.9-49.6-10.2-92.1-33.4-126.8-70.2-39.1-41.5-60.1-91.1-64.3-147.9-1.4-18.6-0.4-37.1 2.9-55.5 5.5-31.2 16.7-60.3 33.7-87.1 0.6-0.9 1.2-1.9 1.8-2.8s0.7-1.8-0.3-2.5c-4.1-3.1-8.2-6.2-12.3-9.2-1.1-0.8-1.6-0.7-2.4 0.3-0.6 0.8-1.1 1.6-1.6 2.4-27.1 42.2-40.7 88.5-41.3 138.7z"/>
<path class="st3" d="m1378 1205.5c16.3 0 33.3-5.3 48.7-15.7 3.6-2.5 3.9-2.2 0.9-5.6-1.2-1.3-2.3-2.7-3.3-4.1-0.9-1.2-2-1.9-3.5-2.2-2.4-0.3-4.7-0.8-7-1.4-28.1-7.4-48.7-24.2-61.8-49.9-8.7-17.1-11.8-35.4-9.1-54.5 1.9-13.6 4.2-27.2 6.3-40.7 2.4-15.5 5-30.9 7.3-46.4 2.2-14.4 6.9-27.9 14.9-40.1 1.1-1.7 2.7-3.1 3.1-5.3-2.2-1.2-4.3 0.1-6.4 0.5-35 7.9-62.2 36.4-68.4 71.7-2.4 13.5-4.4 27.1-6.6 40.7-2.4 15.3-4.8 30.6-7.3 45.9-3 18.1-1.4 35.7 6 52.6 14.5 33.4 46.8 54.4 86.2 54.5z"/>
<path class="st3" d="m1550.8 950.9c-2.6 0-5.1-0.2-7.7 0-3.5 0.3-7 0.9-10.4 1.6-34.6 6.9-62.7 34.6-69.9 69.2-1.9 9.1-3.1 18.3-4.6 27.4-3.4 21.1-6.5 42.3-10.1 63.5-2.1 12.5-1.8 24.8 1.3 37.1 10 39.7 45.8 69.8 92 68.7 0.3 0 0.6 0 1-0.1s1 0 1.2-0.5-0.1-0.9-0.5-1.2c-0.9-0.6-1.8-1.3-2.7-1.9-6.2-4.5-11.9-9.7-16.9-15.6-17.8-21.4-25.2-46-22-73.6 1.2-10.6 3.3-21.2 5-31.7 2.4-15.2 4.8-30.3 7.2-45.5 1.1-6.6 1.9-13.3 3.4-19.8 7.7-32.9 31.9-58.9 64.3-69.1 1.1-0.3 2.1-0.7 3.2-1 0.2-0.1 0.4-0.4 0.4-0.6-0.1-0.3-0.3-0.6-0.6-0.7-0.9-0.4-1.8-0.8-2.7-1.1-10-3.5-20.3-5.6-30.9-5.1z"/>
<path class="st1" d="m1413.7 1323.5c0.5-0.1 0.8-0.1 1-0.2 0.8-0.7 1.7-1.5 2.4-2.3 15.5-15.7 30.9-31.5 46.4-47.2 16.1-16.4 32.3-32.9 48.4-49.3 0.8-0.8 1.5-1.6 2.2-2.5 0.4-0.5 0-1.3-0.7-1.4-2.4-0.4-4.7-0.8-7.1-1.2-8.5-1.4-17.1-2.5-25.6-4.1-16.1-3-30.3-10-42.8-20.5-1.1-0.9-2.2-1.9-3.3-2.8-0.7-0.5-1.4-0.7-2.2-0.1-1.2 0.8-2.3 1.7-3.5 2.5-20.5 13.5-42.8 18.9-67.2 15.2-13.3-2-26.5-4.3-39.8-6.3-20.1-3.1-37.3-11.8-51.9-26-1.9-1.9-3.7-3.9-5.6-5.9-0.6-0.6-1.3-0.9-2.1-0.5-2.1 1-3.1 1.6-0.9 3.7 0.5 0.4 0.9 0.9 1.4 1.4 14.7 14.5 29.5 28.9 44.2 43.4 31.5 30.9 62.9 61.9 94.4 92.9 3.5 3.5 7.1 6.9 10.7 10.4 0.7 0.1 1.2 0.5 1.6 0.8z"/>
<path class="st7" d="m1461.9 496.4c-0.2-21.8-2.5-42.6-7.7-63-18-69.5-57.9-122.8-119.5-159.6-31.9-19-66.6-30.1-103.6-33.9-15.5-1.6-31-1.8-46.5-0.5-7.3 0.6-14.6 1.5-21.9 2.8-0.5 0.1-1 0.1-1.1 0.7-0.1 0.5 0.1 0.9 0.5 1.2 5.9 4.4 11.8 8.8 17.6 13.3 1.3 1 2.6 1.2 4 1.1 2.9-0.2 5.7-0.6 8.6-0.7 23.3-1.1 46.3 0.9 69 6.4 72.3 17.7 132.2 68 161.8 136.2 11.1 25.5 17.4 52.1 19.2 79.8 0.9 14.2 0.6 28.5-1.1 42.6-0.2 1.9 0 3.4 1.2 4.9 4 5.4 7.9 10.9 11.9 16.3 0.4 0.5 0.8 1 1.3 1.4 0.4 0.3 1 0.2 1.1-0.3 0.2-0.6 0.3-1.2 0.4-1.9 3.2-15.7 4.6-31.6 4.8-46.8z"/>
<path class="st4" d="m1515.5 944.7c-10.1-0.1-18.3 1-26.1 3.2-35 9.9-58.3 38-64.2 68.5-2.5 13.2-4.4 26.5-6.5 39.7-2.5 15.3-4.9 30.6-7.3 45.9-1.5 9.5-2.7 18.9-1.6 28.6 2.4 22 11.5 40.7 27.3 56.2 13.8 13.5 30.5 21.3 49.5 24.3 0.9 0.1 2.3 1.2 2.8-0.2 0.3-0.8-1.3-1.2-2-1.8-0.4-0.3-0.8-0.5-1.2-0.8-13.9-8.9-24.9-20.5-32.8-35-9.7-17.8-13.6-36.8-10.9-57 1.1-8.4 2.5-16.7 3.9-25.1 3.5-22.3 6.9-44.5 10.6-66.8 4.4-25.9 17.6-46.3 38.8-61.7 9.6-6.9 20.1-11.7 31.6-14.6 1.2-0.3 2.4-0.7 3.7-1.1 0.3-0.1 0.4-0.5 0-0.7-0.7-0.3-1.4-0.7-2.2-0.8-5.1-0.4-10.2-0.8-13.4-0.8z"/>
<path class="st4" d="m1351.6 931.9c-7.7 0-14.7 0.7-21.5 2.4-35 8.3-61.9 36.8-68 71.7-2 11.5-3.7 23-5.6 34.6-2.8 17.4-5.5 34.7-8.3 52.1-1.6 9.7-2 19.4-0.6 29.1 4.5 32.9 28.3 63.1 62.9 73.6 5.2 1.6 10.5 2.9 15.9 3.4 0.2 0 0.4-0.3 0.6-0.5 0-0.1 0-0.3-0.2-0.4-0.8-0.5-1.6-1.1-2.4-1.6-6.8-4.2-13.1-9.2-18.6-15-20.5-21.8-29.3-47.7-26-77.4 1.6-14.6 4.5-29.1 6.8-43.6 2.4-15.3 4.8-30.6 7.3-45.9 5.9-35.1 25.2-59.8 57.6-74.2 5.1-2.3 10.5-3.9 16-5.1 0.4-0.1 0.9-0.5 1-0.9 0.2-0.7-0.5-0.7-0.9-0.7-5.4-1.2-11-1.4-16-1.6z"/>
<path class="st4" d="m1505.9 1136.9c-0.2 6.9 0.6 13.6 2.1 20.2 7 31.2 31.9 61.6 72.4 69.1 1.8 0.3 3.7 1.1 5.6 0.6-0.7-2.1-2.9-2.3-4.3-3.5-0.7-0.6-1.6-1.1-2.4-1.6-27.7-19.2-45.1-53-40.4-90.4 1.3-10.6 3.3-21.2 5-31.7 3-19.1 6.2-38.2 9.1-57.3 5.7-37.9 33.1-68.6 70.1-78.2 1.4-0.4 2.8-0.7 4.2-1.1 0.2-0.1 0.4-0.5 0.4-0.6-0.1-0.3-0.3-0.6-0.6-0.7-0.4-0.2-0.9-0.3-1.4-0.3-11.8-1.8-23.6-1.8-35.3 0.8-35.1 7.8-62.7 36.1-69.1 71.2-1.7 9.4-3.1 18.9-4.6 28.4-2.8 17.5-5.6 35-8.3 52.6-1.2 7.4-2.8 14.9-2.5 22.5z"/>
<path class="st4" d="m1451.3 907c-7.2 0.1-14.2 0.8-21.1 2.4-33.5 7.8-60.2 34.7-67.2 68.5-2.7 13.1-4.5 26.5-6.6 39.7-2.7 17-5.3 34.1-8.1 51.2-1.8 11-1.8 21.9 0.3 32.9 6.2 32.3 30.6 59.4 62.1 68.9 2.4 0.7 4.7 1.9 7.3 1.3-0.5-2.4-2.2-4.2-3.1-6.4-0.7-1.7-2.2-2.7-3.5-3.8-8.4-7.5-15.4-16.3-20.7-26.2-9.1-16.8-12.7-34.8-10.9-53.7 0.8-8.9 2.6-17.7 4-26.6 2.4-15.3 4.9-30.6 7.3-45.9 1.4-8.5 2.4-17.1 4.2-25.6 7.4-35.3 33.7-63 68.6-72.4 1.4-0.4 2.8-0.7 4.2-1.1 0.3-0.1 0.5-0.4 0.6-0.6 0.2-0.7-0.3-0.8-0.8-0.9-5.6-1.3-11.2-1.4-16.6-1.7z"/>
<path class="st8" d="m1746.4 1027.4c-12 0-22.5 1.1-32.9 3-3.7 0.7-3.8 0.7-4.4 4.5-1.5 9-2.9 18-4.3 27-2.4 15.1-4.8 30.3-7.2 45.4-1.6 10.3-3.2 20.5-4.9 30.8-0.1 0.4-0.2 1 0.5 1 0.3 0 0.7-0.2 0.8-0.4 2.1-2.8 4.2-5.6 6.2-8.5 5.6-8.4 10.3-17.3 14.9-26.3 5.3-10.4 10.5-20.8 16.9-30.6 6.5-10 14-19 23.1-26.7 5.5-4.6 11.4-8.7 17.7-12.3 1-0.6 1.9-1.1 2.9-1.7 0.2-0.2 0.5-0.5 0.5-0.8 0-0.2-0.3-0.6-0.5-0.6-1.1-0.4-2.1-0.7-3.2-1-9.1-2-18.3-2.7-26.1-2.8z"/>
<path class="st2" d="m1204.1 476.6c4.2 0 4.5 0 2.6-4.2-0.3-0.6-0.5-1.2-0.7-1.8-8-20.5-10.4-41.6-5.8-63.1 8.4-39.3 31.5-66.7 68.4-82.4 4-1.7 8.2-2.8 12.2-4.2 0.4-0.1 0.9-0.2 0.8-0.8 0-0.1-0.6-0.2-0.9-0.2-3.9 0.2-7.6 1.1-11.3 2-42.9 10.3-78.2 46.9-81.9 96.8-1.4 18.7 2.2 36.6 10.4 53.5l1.5 3c0.5 0.9 1.3 1.4 2.3 1.4h2.4z"/>
<path class="st9" d="m1257.5 442c-7.1 0.1-13.7 5.6-13.8 13.6-0.1 6.9 5.2 13.7 13.5 13.8 8.4 0.1 13.8-6.8 13.8-13.6 0-7.5-6-13.7-13.5-13.8z"/>
<path class="st9" d="m1210.6 548.3c2.2 0 5-1 7.5-2.9 1.7-1.2 1.8-1.9 0.6-3.5-3.4-4.8-6.9-9.6-10.4-14.3-1-1.4-2.1-2.8-3.1-4.2-0.7-0.9-1.5-1-2.5-0.4-5.1 3-7.7 9.2-6.2 14.8 1.6 6.2 6.9 10.5 14.1 10.5z"/>
<path class="st9" d="m1300.6 434.1c-0.1 1.9 0.5 4 1.7 6 0.6 1 1.3 1.2 2.4 0.6 1.1-0.7 2.1-1.4 3.2-2.2 5.5-3.9 10.9-7.7 16.4-11.7 1-0.7 1-1.5 0.2-2.4-3.7-4.2-9.6-5.6-14.8-3.7-5.6 2.1-9.2 7.2-9.1 13.4z"/>
<path class="st10" d="m1676.8 378.6v-0.1c-4.9 0.3-9.9 0.6-14.8 0.9-0.4 0-1 0.2-1.1 0.5-0.3 0.5 0.3 0.8 0.7 1 2.5 1.5 5 2.8 7.4 4.4 3.1 2 5.9 4.4 8.5 7 2.2 2.2 2.3 2.1 3.7-0.3 0.7-1.1 1.3-2.2 2-3.3 2.3-3.5 5.1-6.6 8.3-9.2 0.3-0.3 0.7-0.8 0.7-1.1-0.1-1-1-0.6-1.5-0.6-4.6 0.2-9.3 0.5-13.9 0.8z"/>
<path class="st9" d="m1364 400.7c-0.1-2.3-2-4.1-4.4-4.1-2.3 0-4.2 2-4.2 4.3 0 2.5 2.2 4.6 4.7 4.4 2.3-0.2 4-2.3 3.9-4.6z"/>
<path class="st9" d="m1278.7 625.6c0-0.2 0.1-0.3 0-0.5-0.9-2.2-2.3-4.1-4.1-5.6-0.3-0.2-1-0.1-1.3 0.1-2.3 1.4-2.9 4-1.4 6.1 1.5 2 4.4 2.4 6.3 0.7 0.2-0.2 0.3-0.6 0.5-0.8z"/>
<path class="st0" d="m268.6 499.4c1.6-1 1.6-2.6 1.8-4.2 1.1-9 3.6-17.5 7.6-25.6 8.5-17.4 21.5-30.4 38.7-39.2 1.1-0.6 3-0.8 3.1-1.9 0.2-1.6-1.9-1.8-3-2.4-25.6-14.4-40.8-36.2-44-65.4-5.1-46.4 26.6-84.6 68-92.4 36.1-6.8 68.6 9.4 86.4 36.1 0.6 0.9 1.2 1.9 1.9 2.8 0.4 0.5 1.3 0.4 1.5-0.2 0.4-1 0.7-2.1 1.2-3.1 12-28.7 33.1-46.9 63.6-52.7 46.2-8.7 87.4 21.2 97.6 62.9 1.1 4.7 1.9 9.4 2.2 14.2 0.1 1.3 0.2 2.6 0.4 3.8 0.1 0.9 0.7 1.4 1.7 1.4 1.3 0 2.6-0.1 3.8-0.1 20.6-0.2 39 5.9 55.2 18.6 5.5 4.3 9.6 9.8 14 15 0.6 0.7 1.2 1.5 1.7 2.3 1 1.7 2.5 2.2 4.4 2.4 6.5 0.5 13 1.5 19.5 2.7 35.1 6.2 67.7 18.9 97.4 38.7 58.5 38.8 95.6 92.7 111.9 161 5.4 22.5 7.5 45.5 6.3 68.6-3.5 67.3-28.5 125.4-75.8 173.5-36.6 37.2-80.8 60.6-131.7 71.6-16.1 3.5-32.5 5.3-49 5.5-67.1 0.6-126.3-20.8-177-64.8-42.6-37-69.8-83.6-82.7-138.5-2.6-11.2-4.4-22.6-5.5-34.1-0.2-2.2-1-3.8-2.6-5.4-12.8-12.6-20.8-27.8-24.1-45.5-0.7-4.1-1.2-8.2-1.4-12.4-0.1-1.7-0.4-2-2-2-2.4 0-4.8 0.1-7.2 0-21.9-0.4-40.9-8.3-56.7-23.3-14.4-13.7-22.9-30.6-25.5-50.3-0.2-1.6-0.4-3.2-1.8-4.3 0.1-4.3 0.1-8.8 0.1-13.3z"/>
<path class="st11" d="m652.7 659.7c0.1 0 0.1 0.1 0.2 0.1-0.5-0.6-1.2-0.6-1.9-0.6 0.2-0.8 1-1.8-0.3-2.4-0.1-1.9-1.3-3.2-2.1-4.8-12-24-15.5-49.3-10.1-75.5 10.8-52.5 54.9-87.9 102.8-91.7 4-0.3 8-0.5 12-0.6 0.5 0 1 0 1.4-0.1 0.3 0 0.9-0.2 0.9-0.3-0.1-0.5-0.5-0.6-1-0.7-14.3-2-28.4-1.2-42.3 2.4-61.5 15.8-98.5 80.6-76.9 143.6 3.1 9.1 7.5 17.6 13 25.6 0.6 0.8 0.9 2.2 2.3 2 0.1 0.8 0.1 1.7 0.2 2.5 0.7 0.2 1.3 0.4 1.8 0.5z"/>
<path class="st12" d="m549.3 522.2c-0.4-0.3-0.7-0.7-1.1-1-0.9-1.3-1.8-2.6-2.8-3.9-28-40.6-42.7-85.5-44.4-134.8-0.3-9.9 0-19.8 1-29.7 0.7-7.6 1.7-15.3 3.5-22.7 0.3-1.1 0.3-2.2 1-3.2 0.6-0.8 1.4-1.3 2.5-1 1 0.3 1.7 1 1.8 2 0.1 0.9-0.1 1.9-0.3 2.8-2.4 11-3.6 22.1-4.2 33.3-1.1 22 0.9 43.8 5.7 65.3 8.2 36.7 24.5 69.5 47.9 98.9 8.5 10.7 17.8 20.6 27.7 29.9 1.1 1.1 2.7 1.8 3 3.5 0.3-0.1 0.5-0.1 0.8-0.2 0 0 0-0.1 0.1-0.2-0.3 0.2-0.6 0.3-0.8 0.5 1.2-1.7 0.1-3-0.6-4.5-5.7-12-8.8-24.6-9.6-37.9-0.9-14.5 0.6-28.7 4-42.8 4.6-19.3 11.9-37.4 21.8-54.6 0.6-1.1 1.3-2.2 2.2-3.1 0.7-0.8 1.6-0.9 2.6-0.4 1.1 0.5 1.7 1.7 1.3 2.8-0.5 1.2-1.1 2.3-1.7 3.4-11.6 20.5-19.8 42.2-23.6 65.5-2.3 14.3-2.4 28.6 0.4 42.9 4.3 21.9 15.9 39.5 32.1 54.4 1.2 1.1 2.7 2.2 4.2 1.6 1.2-0.5 0.6-2.3 0.9-3.5 0.1-0.5 0.1-1 0.1-1.4 0.7-12.4 3.7-24.3 8.4-35.8 8-19.2 20.3-35.1 36.9-47.6 2.3-1.8 3.6-3.7 4.1-6.6 1.2-7.1 2.8-14.1 4.1-21.2 2.7-15.8 4.8-31.6 4.4-47.7v-5.3c0.1-5-0.3-9.9-1.1-14.8-2.9-17.7-11.4-32.5-23.8-45-7.8-7.9-17.5-13.4-28.1-17s-21.4-5.2-32.6-4.1c-5.4 0.5-6.7 0.6-6.5-6.1 0.1-5.6-0.7-11.2-2-16.6-9.9-42.5-52.9-70-96.3-59-29.5 7.5-48.6 26.4-57.8 55.4-0.4 1.4-0.7 2.8-1.3 4.1-0.8 1.8-3.1 2-4.3 0.4-0.7-1-1.3-2.2-1.9-3.3-17-31.5-52.6-47.6-87.4-40-43.7 9.6-71.2 54.2-59.8 97.5 6.7 25.3 22.4 43 46.3 53.6 1.2 0.5 2.4 0.9 3.5 1.6 1.7 1 1.6 3.3-0.2 4.2-1.1 0.6-2.4 1-3.5 1.4-28.3 10.7-48.3 37.4-50.7 67.2-1.6 19.6 3 37.6 14.7 53.4 17.9 24.1 42.2 34.9 72.1 32.9 4.5-0.3 4.9 0 5 4.6 0.1 6.9 1 13.7 2.7 20.4 8.7 33.5 39.2 58 73.8 59.1 5.6 0.2 11.2-0.2 16.8-0.8 4.8-0.6 4.8-0.5 6.2-5.3 11-36.1 34-61.3 68.9-75.6 18-7.3 36.8-9.4 56-7.1 4.6 0.6 9.1 1.5 13.7 2.4 0.4 0.1 1 0.3 1.2-0.2 0.1-0.3-0.5-0.7-0.7-1.1-0.1-0.1-0.3-0.2-0.4-0.3-13.9-10.2-29.4-16.1-46.5-17.8-13.8-1.3-27.5 0-40.9 3.4-23.1 5.8-44.1 16.1-63.6 29.5-1.1 0.7-2 1.5-3.1 2.2-1.3 0.8-2.8 0.4-3.4-0.6-0.7-1.1-0.5-2.5 0.6-3.5 1-0.8 2-1.6 3.1-2.3 8-5.6 16.4-10.6 25.1-15 17.1-8.6 34.9-15.1 53.9-17.9 18.2-2.7 36-1.6 53.4 4.7 0.8 0.3 1.5 0.5 2.3 0.7 0.1 0 0.4-0.1 0.4-0.1 0-0.3 0.1-0.7-0.1-0.8-0.8-0.8-1.6-1.6-2.4-2.3-14-13.1-29.5-24-46.1-33.4-30-17.1-62.3-27.3-96.7-30.6-13.4-1.3-26.8-1.5-40.3-0.5-17 1.3-33.6 4-49.9 9.1-0.5 0.1-0.9 0.4-1.4 0.5-1.9 0.5-3.1 0-3.7-1.3-0.5-1.3 0.1-2.6 1.9-3.3s3.6-1.3 5.5-1.8c16.5-4.9 33.4-7.4 50.5-8.4 20.2-1.2 40.3 0.1 60.2 3.9 25.8 4.9 50.2 13.7 73.2 26.4 1.3 0.7 2.5 1.4 3.8 2.1 0.4 0.2 0.9 0.6 1.2 0 0.1-0.1-0.2-0.6-0.4-0.8-0.7-0.7-1.4-1.3-2.1-2-39.6-36.1-79.3-72.2-118.9-108.2l-63.9-58.2c-0.9-0.9-1.9-1.7-2.7-2.7-0.8-0.9-0.6-2.2 0.2-3.1 0.7-0.8 2.1-1 3.1-0.3 1.3 0.9 2.5 2 3.6 3.1 60.9 55.5 121.9 110.9 182.8 166.4 1.1 1 2.2 1.9 3.3 2.8 0.2 0.2 0.8-0.1 1.3-0.2-0.2 1.1 0.5 1 1.2 1 0.3 0.6 0.5-0.3 0.3 0.3-0.1 0.3-0.3 0.4-0.6 0.1-0.7-0.8 0-0.1-0.1-0.7z"/>
<path class="st11" d="m479.3 743.6c0.2 0.3 0.5 0.6-0.2 0.6 0.1-0.2 0.2-0.4 0.2-0.6-0.6-0.2-0.5-1.3-1.4-1.3 0.4-1.5-0.3-2.8-0.7-4.2-5.1-17.4-6.4-35.1-3.2-53.1 4.2-24.2 14.8-45.2 32.4-62.3 26.2-25.5 57.7-36.3 94-32.9 4.1 0.4 8.3 0.7 12.2 2.3 0.4 0 0.9 0 1.3-0.1 0.2 0 0.4-0.1 0.7-0.2-0.3-0.1-0.5-0.2-0.8-0.2-0.4 0.1-0.9 0.3-1.3 0.5-0.1-0.5 0-1.2-0.2-1.3-1.1-0.5-2.4-1-3.6-1.3-16.5-4.9-33.2-6.1-50.2-3-32.6 6-57.8 23.1-75.4 51.1-12.5 20-17.6 41.9-16 65.4 0.8 12.6 3.8 24.6 8.8 36.1 0.5 1.1 0.6 2.5 2 3-0.1 1.2 0.3 1.7 1.4 1.5z"/>
<path class="st11" d="m601.7 681.8c1.1 0.4 1.8-0.4 2.5-0.9 11.6-8.3 23.1-16.6 34.6-25 0.3-0.2 0.5-0.4 0.8-0.6 1.8-1.4 1.9-1.7 0.9-3.5-4.5-7.6-8.1-15.6-10.8-24-0.5-1.6-1.5-2.4-3.1-2.4-4.8-0.1-9.1 1.4-12.9 4.4-2.3 1.9-3.7 4.2-4.2 7.3-2.4 13.4-5 26.7-7.4 40.1-0.3 1.5-0.8 3.1-0.2 4.7-0.4-0.1-0.4 0-0.1 0.2-0.1-0.1-0.1-0.2-0.1-0.3z"/>
<path class="st1" d="m650.8 865c16.1-0.3 32.5-1.8 48.6-5.4 44.9-10 83.9-30.9 116.1-63.7 41.1-41.8 63.3-92.4 67.3-150.9 1.4-20.9-0.3-41.6-4.9-62-10-45-31-84.1-63.9-116.6-34.3-33.9-75.5-54.9-122.8-63.9-1.3-0.2-2.5-0.3-3.8-0.4-0.8-0.1-1.2 0.5-1.1 1.2 0.3 2.7 0.7 5.4 0.9 8.1 0.4 8.3 0.3 16.6 0.1 24.9-0.1 6.2-0.8 12.5-1.5 18.6-1.3 11.1-3.4 22.1-5.4 33.1-0.3 1.6-1.5 3.2-0.4 4.9 1.7-0.2 2.9-1.3 4.3-2 16-8.7 33.1-13.4 51.4-14 24.4-0.8 46.8 5.5 67.3 18.8 1.3 0.9 2.7 1.7 4.1 2.5 43.1 23.6 67.8 72.5 57.8 123.9-9.7 49.9-53.5 91.7-111.4 92.9-15.7 0.3-30.9-2.6-45.4-8.5-1.2-0.5-2.4-1-3.6-1.4-0.4-0.2-1 0-1.1 0.6-0.1 0.8-0.2 1.6-0.2 2.4-0.5 6.5-1.1 13.1-2.4 19.5-11.9 59-67.5 98.5-126.2 91.6-23-2.7-43.5-11.4-61.2-26.3-5-4.2-9.9-8.6-14.7-13-6.2-5.6-11.6-11.9-16.3-18.8-11.3-16.4-18-34.5-20-54.3-1-9.9-0.7-19.8 0.9-29.6 0.1-0.8 0.1-1.6 0.2-2.4 0-0.6-0.4-0.9-0.8-1-0.8-0.1-1.6 0-2.4 0-4 0.3-8 0.8-12 0.9-8.4 0.2-16.6-0.9-24.7-3.1-2.4-0.7-2.8-0.3-2.4 2.3 0.1 0.8 0.2 1.6 0.4 2.4 2.1 10.2 4.7 20.2 8.1 30.1 31.4 93.9 119.3 158.1 221.1 158.6z"/>
<path class="st7" d="m907.1 635.7c-0.2-17.9-1.3-31.7-3.6-45.5-4.3-25.9-12.2-50.7-24.2-74-33.3-64.5-84.9-107.5-153.9-129.6-15-4.8-30.3-7.9-45.9-9.6-1.6-0.2-2.2 0.5-1.5 1.9 2.3 4.6 4.5 9.2 5.7 14.2 0.7 2.8 2.1 4.1 4.9 4.2 0.6 0 1.3 0.2 1.9 0.3 23.7 4 46.2 11.5 67.6 22.4 76.1 38.8 123.7 113.3 129.5 195.9 1.5 20.7 0.3 41.3-3.9 61.6-10.4 51.1-34.4 94.8-73 129.9-43.5 39.6-95 60-153.7 62.2-22 0.8-43.7-1.9-65.1-7.3-78-19.7-140.9-77.7-166.7-153.9-4.1-12-7.2-24.2-9.3-36.7-0.4-2.2-1.3-3.4-3.3-4.2-5.2-2.1-10-5-14.6-8.2-0.5-0.4-1.1-0.8-1.6-1-0.4-0.2-1 0.1-1 0.7 0 1.1 0 2.2 0.1 3.3 1.2 9.5 2.8 19 5.1 28.3 11.6 47.6 34.3 89.1 69.3 123.4 45.4 44.5 100.2 69 163.5 73.7 24 1.8 47.9 0 71.5-5.3 50.9-11.4 94.8-35.4 130.7-73.3 47.1-49.4 70.3-109 71.5-173.4z"/>
<path class="st13" d="m751.5 710.2c61.7 0.1 110.6-50.1 110.6-110.3 0-60.4-48.9-110.2-110-110.5-59.6-0.3-110.6 47.5-110.9 110.1-0.1 62 50.1 110.5 110.3 110.7z"/>
<path class="st13" d="m587.4 594.3c-8.2-0.2-16.7 0.9-25.2 2.9-64.6 15.6-100.3 82.9-78.6 144.2 18.8 53.2 74.1 83.6 129.1 70.8 40.5-9.4 73.5-41.1 82.9-84.3 1.7-7.7 2.5-15.5 2.4-23.3 0-1.8-0.6-2.9-2.3-3.8-3.2-1.8-6.3-3.8-9.4-5.7-1.5-0.9-3.1-1.7-4.6-2.5-0.9-0.5-1.6-0.1-1.9 0.7-0.3 0.9-0.5 1.9-0.8 2.8-2.6 7.2-7.5 12.2-14.7 14.8-2 0.7-4 1-6.1 0.6-16.7-3.1-33.3-6.3-50-9.4-0.6-0.1-1.3-0.2-1.8-0.5-1.7-0.7-2.1-2.7-0.8-3.9 1-1 2.2-1.8 3.4-2.6 12.4-8.8 24.9-17.5 37.3-26.2 0.9-0.6 1.8-1.3 2.7-2 0.8-0.6 0.9-1.3 0.4-2.1-0.4-0.7-0.9-1.3-1.4-1.9-4.1-5.3-2.7-5.2-8.2-1.2-12.7 9.1-25.4 18.3-38.2 27.5-1.2 0.8-2.4 1.7-3.6 2.3s-2.8-0.5-2.9-1.7c0-1.4 0.1-2.9 0.3-4.3 3.1-16.7 6.3-33.3 9.3-50 0.6-3.1 1.9-5.7 4.1-7.9 2.9-2.9 6.3-4.9 10.2-6.1 2.2-0.6 4.4-1 6.6-1 1.4 0 1.7-0.5 1.4-1.8-1-5.3-2.1-10.7-2.4-16.1-0.1-1.3-0.7-2.1-1.9-2.4-0.9-0.3-1.8-0.6-2.7-0.9-10.5-3.4-21.1-5.1-32.6-5z"/>
<path class="st11" d="m659.9 706.5c0.5 0 0.9 0.1 1.2 0 0.6-0.1 1.2-0.3 1.8-0.5 6.6-2.6 10.6-7.3 12.1-14.3 0.4-2.1 0-3.5-1.9-4.8-6.2-4.2-11.8-9.2-17-14.6-0.4-0.5-0.9-0.9-1.3-1.4-0.7-0.6-1.4-0.6-2.2-0.1s-1.6 1.1-2.4 1.6c-10.7 7.5-21.4 15-32.1 22.6-1.1 0.8-2.7 1.1-2.9 2.9 1.2 0.4 2.4 0.8 3.6 1.1 10.8 2 21.6 4 32.5 6 2.9 0.4 5.8 1 8.6 1.5z"/>
<path class="st0" d="m2537.1 1096.6c-1 0.5-1.9 1.1-3.1 1-1.1-0.1-2.2 0-3.4 0h-128.1c-1.6 0-3.2 0-4.8-0.2-1.2-0.1-2-1.2-2-2.4 0-1.1 0.8-2.1 2-2.3 1.1-0.1 2.2-0.1 3.3-0.1h131c1.7 0 3.6-0.2 5 1.1 0.1 0.9 0.1 1.9 0.1 2.9z"/>
<path class="st0" d="m2161.8 1375c-1-1-2.1-1.9-2.9-3-2.3-2.9-2.6-6.1-1-9.4s4.5-4.9 8.2-4.7 6.3 2.1 7.6 5.5c1.2 3.2 0.6 6.2-1.6 8.9-0.8 1-2.2 1.3-2.6 2.7h-7.7zm3.9-12.3c-2.1-0.1-4 1.8-3.9 3.9 0 1.9 1.7 3.6 3.7 3.7 2.1 0.1 4-1.8 3.9-3.9-0.1-1.9-1.8-3.7-3.7-3.7z"/>
<path class="st0" d="m2203.8 547.6h113.2 4.3c1.9 0.1 3 0.9 3.1 2.4 0.1 1.6-1 2.5-3.2 2.7-1.4 0.1-2.9 0-4.3 0h-63.5-63.8c-1.6 0-3.2 0-4.8-0.2-1.3-0.1-2-1-2.1-2.2-0.1-1.3 0.8-2.4 2.3-2.6 1.1-0.1 2.2-0.1 3.4-0.1"/>
<path class="st0" d="m548.5 1201.2h-64.3c-1.4 0-2.9 0-4.3-0.2-1.1-0.1-1.9-1.2-1.9-2.4s0.8-2.1 2-2.3c1.1-0.1 2.2-0.1 3.4-0.1h131c1.1 0 2.2 0 3.3 0.2 1.1 0.1 2 1.4 2 2.4s-1 2.2-2.1 2.3c-1.4 0.1-2.9 0.1-4.3 0.1h-64.8z"/>
<path class="st0" d="m697.8 1145.8h-64.3c-1.6 0-3.2 0-4.8-0.2-1.2-0.1-2-1.2-2-2.3s0.9-2.2 2-2.3c1.4-0.1 2.9-0.1 4.3-0.1h77.8 51.4c1.4 0 2.9 0 4.3 0.1 1.1 0.1 2 1.3 2 2.4 0 1-0.9 2.2-2.1 2.3-1.6 0.1-3.2 0.2-4.8 0.2-21.3-0.1-42.6-0.1-63.8-0.1z"/>
<path class="st11" d="m337.3 713.8h10.1c1.1 0 2.2 0.1 3.3 0.3 2.3 0.5 3 2.4 1.6 4.3-0.1 0.1-0.2 0.3-0.3 0.4-6.3 6.6-12.5 13.3-19.6 18.9-3.7 2.9-7.8 4.2-12.5 2.8-6.2-1.8-10-7.1-9.8-13.6 0.2-6.4 5.4-11.8 11.1-12.6 5.2-0.8 10.6-0.7 16.1-0.5z"/>
<path class="st11" d="m334.3 718.7c-4.2-0.3-8.3 0-12.4 0.6-3.7 0.6-6 3-6.8 6.6-0.8 3.4 0.5 6.3 3.3 8.4 2.7 2.1 6.4 2.2 9.4 0.3 0.8-0.5 1.6-1.1 2.3-1.7 4.6-3.7 8.7-8 12.9-12.2 0.3-0.3 0.6-0.9 0.5-1.2s-0.7-0.7-1.1-0.7c-2.6-0.1-5.4-0.1-8.1-0.1z"/>
<path class="st11" d="m335.9 673.1c3.5-0.2 6.5 1.1 9 3.5 1.9 1.9 3.8 3.9 5.5 6 3.9 5.1 7.7 10.2 11.5 15.4 0.6 0.8 1.1 1.6 1.5 2.4 0.6 1.4-0.3 3.1-1.8 3.3-0.8 0.1-1.6 0.1-2.4 0-8.2-1-16.5-1.7-24.6-3.7-1.2-0.3-2.5-0.6-3.7-1.1-6.1-2.3-9.5-8.5-8.4-15 1.1-6.2 6.7-10.8 13.4-10.8z"/>
<path class="st11" d="m335.9 678.1c-6.2 0-10.4 6.6-7.6 12.2 1.2 2.5 3.2 3.9 5.9 4.5 4 0.9 8.1 1.7 12.2 2.4 2.5 0.4 5 0.6 7.6 0.9 0.8 0.1 1.2-0.6 0.7-1.3-2.1-3-4.2-6-6.5-8.8-2-2.5-4.1-4.9-6.3-7.2-1.7-1.8-3.7-2.7-6-2.7z"/>
<path class="st0" d="m1174.7 1310.6c-0.1 5.7-4.9 10.4-10.5 10.3s-10.4-4.9-10.3-10.6 4.9-10.3 10.5-10.3c5.7 0.2 10.4 5 10.3 10.6z"/>
<path class="st0" d="m2292.6 1245c0.2-5.7 5.1-10.3 10.7-10.1 5.7 0.2 10.2 5 10 10.7s-5 10.3-10.7 10.1c-5.5-0.2-10.2-5.1-10-10.7z"/>
<path class="st0" d="m2503 552.7h-23.9c-1.3 0-2.6-0.1-3.8-0.4-1-0.2-1.5-1.1-1.5-2.2s0.6-1.9 1.6-2.2c0.9-0.3 1.9-0.3 2.8-0.3h49.3c0.9 0 1.9 0.1 2.8 0.4 1 0.3 1.5 1.2 1.5 2.2s-0.5 1.9-1.5 2.2c-1.2 0.3-2.5 0.4-3.8 0.4-7.9-0.1-15.7-0.1-23.5-0.1z"/>
<path class="st0" d="m2368.2 1040.4h-23c-1.3 0-2.6 0-3.8-0.2s-2-1.3-1.9-2.4 0.9-2.1 2-2.3c0.8-0.1 1.6-0.2 2.4-0.2h49.3c0.8 0 1.6 0 2.4 0.2 1.1 0.2 1.9 1.4 1.9 2.4 0 1.1-0.9 2.1-2.1 2.3-1.3 0.2-2.5 0.2-3.8 0.2h-23.4z"/>
<path class="st0" d="m597 1091.9h-22.6c-1.3 0-2.6 0-3.8-0.2-1.1-0.1-2-1.3-2-2.4 0-1 1-2.2 2.1-2.3 0.6-0.1 1.3-0.1 1.9-0.1h49.9c0.9 0 2 0 2.8 0.4 0.9 0.4 1.4 1.3 1.3 2.4-0.1 0.9-0.6 1.6-1.4 1.8-1.2 0.3-2.5 0.4-3.8 0.4h-24.4z"/>
<path class="st0" d="m2351.6 609.8h-23c-1.3 0-2.6 0-3.8-0.1s-2-1.1-2.1-2.3c-0.1-1.1 0.7-2.2 1.9-2.4 1.1-0.1 2.2-0.2 3.3-0.2h47.4c1.1 0 2.2 0 3.3 0.2 1 0.2 1.7 0.9 1.8 2 0.1 1.2-0.6 2.4-1.7 2.6-1.3 0.2-2.5 0.2-3.8 0.2h-23.3z"/>
<path class="st0" d="m1205.8 1278.7c-4.7 0.1-8.6-3.6-8.8-8.3-0.2-5.1 3.4-8.9 8.5-9 4.8-0.1 8.6 3.4 8.8 8.2 0.1 4.9-3.6 9-8.5 9.1zm-0.3-12.4c-2.2 0.1-3.9 2-3.7 4 0.2 1.9 2 3.5 3.9 3.4 2.1-0.1 3.9-2 3.7-4.1-0.2-1.9-1.9-3.4-3.9-3.3z"/>
<path class="st0" d="m1251.8 1336.3c-3.2-0.3-5.6-3.1-5.4-6.2 0.2-3.2 2.9-5.7 6.1-5.6 3.3 0.1 6 3.2 5.7 6.5-0.4 3.2-3.2 5.6-6.4 5.3zm1.1-5.8c-0.2-0.2-0.3-0.5-0.5-0.6-0.2 0-0.7 0.1-0.7 0.3-0.1 0.4 0.1 0.9 0.6 0.8 0.2 0 0.4-0.3 0.6-0.5z"/>
<path class="st0" d="m2207 1297.1c3.4 0 5.7 2.3 5.7 5.7s-2.3 5.8-5.5 5.9c-3.4 0.1-6.1-2.6-6.1-6 0.1-3.2 2.6-5.6 5.9-5.6zm-0.1 5.1c-0.5 0.2-0.7 0.5-0.4 1 0.1 0.2 0.5 0.4 0.7 0.4 0.4-0.1 0.6-0.6 0.4-1-0.1-0.3-0.5-0.3-0.7-0.4z"/>
<path class="st0" d="m1758.2 932.3c-3.9-0.1-7.2-3.4-7.2-7.4 0-4.2 3.5-7.5 7.7-7.3 4.1 0.2 7 3.4 6.9 7.5-0.2 4-3.5 7.2-7.4 7.2z"/>
<path class="st0" d="m1495.5 830.6c0.1 3.3-2.3 5.8-5.6 5.9s-5.9-2.1-6.1-5.4c-0.2-3.5 2.3-6.2 5.8-6.2 3.3 0 5.9 2.5 5.9 5.7zm-6 0.8c0.3-0.1 0.7-0.1 0.7-0.3 0.2-0.4 0-0.8-0.4-1-0.2-0.1-0.6 0.1-0.7 0.3-0.2 0.4 0 0.8 0.4 1z"/>
<path class="st0" d="m1955.8 1251.1c-17.6 0-32.3-2.1-46.6-6.8-4.3-1.4-8.4-3-12.3-5.3-1.4-0.8-2.7-1.7-3.7-3.1-1.5-2.1-0.6-4.6 1.9-5.3 1.1-0.3 2.2-0.4 3.3-0.4 9.9-0.3 18.8-3.6 26.9-9 5.4-3.5 10.2-7.8 14.6-12.4 6.7-6.9 12.7-14.4 18.2-22.3 6.5-9.3 12.8-18.7 19.3-28 5.9-8.4 11.8-16.8 17.8-25 17.7-24.4 41.7-39.7 70.6-47.5 16.2-4.4 32.7-6.2 49.4-5.6 7.5 0.3 15 0.9 22.4 2.6 2 0.5 4 1.1 6 1.7 1.1 0.3 2.1 0.8 3.1 1.4 3.3 2 3.2 4.7-0.1 6.6-1.2 0.7-2.6 1.3-3.8 2-16.2 8.5-29.4 20.3-39.7 35.4-5.8 8.5-10.6 17.5-15.3 26.6-4.3 8.4-8.5 16.8-13.3 25-7.4 12.8-16.2 24.6-27.3 34.4-20.3 17.9-43.9 28.8-70.7 33.1-7.8 1.3-15.6 2-20.7 1.9z"/>
<path class="st8" d="m2110 1085.2c-17.5 0.3-33.6 2.4-49.3 7.5-19.5 6.3-36.7 16.4-51 31.3-4.3 4.5-8.1 9.4-11.9 14.4-8.8 11.8-16.9 24.1-25.2 36.2-6.2 9.1-12.5 18.2-19.4 26.8-5.8 7.2-12.1 14.1-19.4 19.9-6.8 5.4-14.3 9.7-22.8 11.9-2.8 0.7-5.6 1.1-8.5 1.7-0.2 0-0.6 0.3-0.6 0.5 0 0.3 0.1 0.7 0.3 0.8 0.7 0.4 1.4 0.8 2.1 1.1 3.1 1.2 6.3 2.4 9.5 3.4 20.1 5.9 40.5 7.1 61.2 3.9 25.4-4 48-14.2 67.6-31 10.9-9.3 19.5-20.6 26.8-33 4.6-7.9 8.8-16 12.9-24.1 4.9-9.7 10-19.3 16.1-28.3 10.2-15.1 23.2-27.2 39.1-36.2 1-0.5 1.9-1.1 2.9-1.7 0.2-0.1 0.4-0.6 0.3-0.8 0-0.2-0.3-0.5-0.6-0.6-1.4-0.4-2.8-0.8-4.2-1.1-8.8-2-17.9-2.3-25.9-2.6z"/>
<path class="st0" d="m1762.9 1221.2c-14.6-0.3-29.9-2.3-44.7-7.5-3.8-1.3-7.5-2.8-10.9-4.9-1.4-0.8-2.7-1.7-3.6-3.1-1.1-1.8-0.5-3.9 1.4-4.8 1.1-0.5 2.2-0.5 3.3-0.5 10.9-0.3 20.6-4 29.4-10.3 6.3-4.5 11.8-9.8 16.9-15.5 5.4-6.1 10.4-12.5 15.1-19.2 7-10.1 13.9-20.3 20.9-30.4 5.1-7.3 10.3-14.6 15.6-21.9 16.7-22.8 38.9-37.6 65.8-45.7 19.2-5.8 38.8-7.7 58.8-6.5 6.2 0.4 12.4 1.1 18.5 2.7 2.2 0.6 4.3 1.3 6.4 2 1.2 0.4 2.3 1.1 3.1 2.2 1.1 1.4 1 3.2-0.4 4.3-0.9 0.7-1.9 1.2-2.9 1.7-19.4 9.7-34.5 24-45.8 42.5-5.5 9-10.3 18.4-15.1 27.8-4.5 8.8-9.2 17.6-14.6 25.9-19.8 30.5-48.1 48.9-83 57.6-11 2.5-22.8 3.5-34.2 3.6z"/>
<path class="st8" d="m1764.6 1216.4c8.9-0.3 18.4-0.9 27.6-2.9 37.6-8.3 67.2-28 87.2-61.4 4.6-7.7 8.7-15.6 12.8-23.6 4.7-9.1 9.4-18.2 14.9-26.8 10.7-16.8 24.5-30.3 42-39.9 0.8-0.5 1.7-1 2.4-1.5 0.4-0.3 0.4-0.9-0.2-1.1-1-0.4-2.1-0.7-3.2-1-6.4-1.6-12.9-2.3-19.5-2.6-19.7-1-39 1.3-57.7 7.4-24.6 8-45 22-60.4 42.9-4 5.4-8 10.8-11.8 16.3-6.7 9.6-13.2 19.3-19.8 28.9-5.4 7.9-11.1 15.7-17.2 23.1-5.5 6.5-11.3 12.6-18.1 17.8-6.9 5.3-14.4 9.4-23 11.6-2.2 0.5-4.4 0.9-6.6 1.3-0.5 0.1-1.4-0.1-1.4 0.8 0 0.7 0.8 1 1.4 1.2 2.7 1.1 5.3 2.2 8.1 3.1 13.6 4.4 27.7 6.1 42.5 6.4z"/>
<path class="st0" d="m2148.4 1265c0.1 4.1-3 7.3-7.1 7.4-4.2 0.1-7.4-2.9-7.4-7.1-0.1-4.2 3-7.4 7.1-7.5 4 0 7.3 3.1 7.4 7.2z"/>
<path class="st0" d="m949.8 1099.2c-15-0.3-29.4-2.1-43.4-6.6-4-1.3-7.9-2.7-11.5-4.7-1.5-0.8-3-1.8-4.4-2.9-1.4-1-2.1-2.5-1.6-4.2 0.5-1.8 2-2.3 3.7-2.4 2.2-0.2 4.5-0.3 6.7-0.6 8.1-1 15.4-4.1 22.2-8.5 6.9-4.5 12.8-10.1 18.2-16.2 6.3-7 12-14.5 17.4-22.3 8.2-11.8 16.2-23.7 24.4-35.6 3.5-5 7.1-9.8 10.7-14.7 15.8-21.5 36.7-35.8 61.8-44.1 18.4-6.1 37.3-8.4 56.7-7.9 8.3 0.2 16.6 1.1 24.7 3 2 0.5 4 1.2 5.9 1.9 1 0.4 2 1.1 2.8 1.8 1.4 1.3 1.3 3.5-0.2 4.6-0.9 0.7-1.9 1.2-2.9 1.7-19.5 9.6-34.5 24-45.8 42.5-5.9 9.6-10.8 19.6-16 29.5-4 7.8-8.2 15.6-12.9 23-20.1 31.4-48.8 50.3-84.8 58.9-10.4 2.7-21.2 3.5-31.7 3.8z"/>
<path class="st8" d="m951.2 1094.2c3.2-0.2 7.9-0.3 12.5-0.7 3.7-0.3 7.3-0.9 10.9-1.6 38.2-7.4 68.4-26.6 89.1-60.1 4.8-7.8 9-15.8 13.2-24 5.1-10 10.2-19.9 16.3-29.4 10.5-16.1 23.8-29.2 40.7-38.6 1-0.5 1.9-1.1 2.9-1.7 0.2-0.1 0.4-0.6 0.4-0.8-0.1-0.3-0.4-0.5-0.7-0.6-0.7-0.3-1.5-0.5-2.3-0.7-6.1-1.5-12.3-2.3-18.5-2.6-21.3-1.2-42.2 1.3-62.4 8.4-22.8 8-41.8 21.2-56.3 40.7-4.4 5.9-8.8 11.8-13 17.9-6.8 9.8-13.5 19.8-20.3 29.7-5.8 8.4-11.9 16.7-18.6 24.4-4.7 5.4-9.8 10.6-15.5 15-7.1 5.6-14.9 9.9-23.8 12-2 0.5-4.1 0.8-6.1 1.2-0.5 0.1-1.4 0-1.3 0.9 0 0.3 0.6 0.8 1 0.9 2.1 0.9 4.1 1.8 6.2 2.5 14.2 5.2 29.1 7.1 45.6 7.2z"/>
<path class="st0" d="m1835.1 582.3c-13.1 0.3-26.3-9.9-26.2-26.1 0.1-16.7 13.6-26 25.9-26 13.9 0 26.3 10.8 26.3 26.2-0.1 15.9-13.2 26-26 25.9z"/>
<path class="st1" d="m1835 577.3c11.6 0 21-9.5 20.9-21.1-0.1-11.3-8.9-21-21.1-20.9-12.6 0.1-21 10.3-20.9 21.1 0.2 11.6 9.5 20.9 21.1 20.9z"/>
<path class="st0" d="m1942.8 501.5c-13.4 0.1-24.3-11.2-24.3-24.5 0.1-12.6 10.1-24.3 24.6-24.3 13.5 0 24.3 11 24.2 24.6 0 13.6-10.9 24.3-24.5 24.2z"/>
<path class="st14" d="m1962.3 477c0.3-10-8.5-19.1-19.2-19.2-10.2-0.1-19.6 8.5-19.5 19.5 0.1 10.6 8.7 19.2 19.2 19.3 11.4-0.1 19.8-9.6 19.5-19.6z"/>
<path class="st0" d="m1873.4 492.8c-8.5-0.1-15-6.8-15-15.3 0-7.2 6.2-15.1 15.5-14.8 8.3 0.3 14.8 6.8 14.7 15.1 0 8.4-6.7 15.1-15.2 15z"/>
<path class="st14" d="m1873.3 467.7c-5.5 0.1-10.1 4.8-10 10.2 0.1 5.5 4.8 10 10.3 9.9s9.9-4.7 9.9-10.3c-0.1-5.5-4.6-9.9-10.2-9.8z"/>
<path class="st0" d="m1956.2 589.7c-8.5 0-15.2-6.7-15.2-15.1 0-8.5 6.8-15.2 15.3-15.1 8.3 0.1 14.8 6.6 15 14.9 0 8.5-6.6 15.3-15.1 15.3z"/>
<path class="st14" d="m1956.3 564.6c-5.6-0.1-10.2 4.3-10.3 9.8-0.1 5.4 4.5 10.2 9.9 10.3s10.1-4.4 10.2-9.9c0.1-5.6-4.2-10.1-9.8-10.2z"/>
<path class="st0" d="m1902.2 565.7c-6 0-10.5-4.7-10.5-10.8 0.1-6 4.7-10.6 10.8-10.5 6 0.1 10.6 4.8 10.5 10.8s-4.8 10.6-10.8 10.5z"/>
<path class="st14" d="m1896.8 555.2c0.1 3 2.5 5.4 5.4 5.5 3 0.1 5.8-2.7 5.8-5.7-0.1-2.9-2.6-5.5-5.5-5.5-3.1-0.1-5.8 2.6-5.7 5.7z"/>
<path class="st0" d="m1837.3 452.4c-3.7-0.1-6.7-3.2-6.5-6.8 0.2-3.5 3.1-6.3 6.5-6.4 3.6-0.1 6.7 3 6.7 6.6 0 3.8-2.9 6.7-6.7 6.6z"/>
<path class="st14" d="m1838.8 445.9c0-0.7-0.8-1.3-1.6-1.3-0.8 0.1-1 0.6-1 1.2s0.2 1.2 1 1.3c0.7 0.2 1.6-0.5 1.6-1.2z"/>
<path class="st0" d="m1644.2 1125.5c-6 0.3-10.5-5.1-10.4-10.2 0.1-5.8 4.5-10.3 10.3-10.4 5.2-0.1 10.4 3.6 10.4 10.2 0 7-5.7 10.7-10.3 10.4z"/>
<path class="st0" d="m1634.4 1063c0 4.9-4.1 8.7-9 8.6-4.7-0.1-8.4-4-8.4-8.7 0-4.9 4.1-8.7 9-8.6 4.7 0.1 8.4 4 8.4 8.7zm-5-0.2c-0.1-2.1-2.1-3.8-4.1-3.6-1.9 0.2-3.4 2-3.3 3.9 0.1 2 1.7 3.6 3.6 3.6 2.1 0.1 3.9-1.8 3.8-3.9z"/>
<path class="st0" d="m1634 1188.8c4.9-0.1 9.1 3.8 9 8.6-0.1 5.4-4.3 8.6-8.5 8.6-5 0-9-3.7-9-8.6 0.1-4.6 3.8-8.5 8.5-8.6zm4 8.7c0-2-1.6-3.7-3.5-3.8-2.1-0.1-4 1.8-3.9 4 0.1 2 1.8 3.6 3.8 3.6 1.9-0.1 3.5-1.8 3.6-3.8z"/>
<path class="st0" d="m1598.7 1091c-3.2-0.1-5.8-2.7-5.7-5.9 0-3.4 2.9-6 6.3-5.8 3.2 0.2 5.6 2.9 5.5 6.1-0.2 3.3-2.9 5.7-6.1 5.6zm0.1-6.4c-0.2 0.1-0.5 0.3-0.5 0.5s0.1 0.7 0.3 0.7c0.5 0.1 0.9 0 0.9-0.6-0.1-0.2-0.5-0.4-0.7-0.6z"/>
<path class="st0" d="m1609.6 1159.7c0 3.2-2.5 5.8-5.7 5.9-3.4 0.1-6.1-2.6-6-6.1 0.1-3.3 2.6-5.6 5.9-5.6 3.4 0.1 5.8 2.5 5.8 5.8zm-5.2 0.2c0.2-0.4 0.1-0.7-0.3-0.7-0.3 0-0.7 0-0.8 0.2-0.3 0.4-0.1 0.9 0.4 1 0.1 0 0.4-0.4 0.7-0.5z"/>
<path class="st0" d="m1192.3 1114.8c-5.8-0.1-10.1-4.8-10.1-10.6 0-5.3 4.3-10.2 10.6-10.1 5.7 0 10.1 4.8 10 10.6 0 5.7-4.7 10.2-10.5 10.1z"/>
<path class="st0" d="m1181.8 1047.2c0.1 5-3.7 8.9-8.6 8.9-4.7 0-8.5-3.8-8.7-8.5-0.1-4.9 3.8-8.8 8.8-8.8 4.8 0 8.4 3.6 8.5 8.4zm-4.9 0.1c-0.1-2-1.6-3.6-3.6-3.7-2.1-0.1-4 1.8-3.9 3.9 0.1 2 2.2 3.9 4.2 3.7 1.8-0.2 3.4-1.9 3.3-3.9z"/>
<path class="st0" d="m1214.2 1055.2c0 3.2-2.6 5.8-5.8 5.8-3.4 0-6-2.6-5.8-6.1 0.1-3.3 2.6-5.6 5.9-5.5 3.3 0 5.7 2.5 5.7 5.8zm-5.9-0.8c-0.5 0.1-0.8 0.4-0.6 0.9 0.1 0.2 0.4 0.4 0.6 0.4 0.5-0.1 0.8-0.4 0.7-0.9 0-0.2-0.4-0.2-0.7-0.4z"/>
<path class="st0" d="m1298.8 521.8c0 12.6-10.3 22.7-23 22.7-12.6-0.1-23-10.3-23.1-22.8-0.1-12.6 10.1-22.9 22.8-22.9 12.8-0.1 23.3 10.2 23.3 23z"/>
<path class="st6" d="m1275.6 504c-8.5-0.3-17.7 6.4-17.9 17.5-0.2 9.7 8.2 18.1 18.1 18 10.3-0.1 17.8-8 17.9-17.6 0-10.8-8.9-18.2-18.1-17.9z"/>
<path class="st0" d="m1384.6 534.9c10-0.3 21.6 8 21.4 21.8-0.2 12.3-10.1 21.1-21.8 20.9-13.5-0.2-21.6-11.5-21.4-21.9 0.2-11.4 10-21.3 21.8-20.8z"/>
<path class="st1" d="m1384.4 572.5c9.2 0.1 16.6-7.2 16.6-16.2s-7.5-16.4-16.5-16.4c-9.1-0.1-16.6 7.3-16.5 16.3-0.1 8.9 7.3 16.3 16.4 16.3z"/>
<path class="st0" d="m1318.2 589.7c7.4 0 13.4 5.9 13.4 13.3 0.1 7.5-5.8 13.4-13.2 13.5-7.5 0.1-13.9-6.2-13.8-13.6 0.1-7.3 6.2-13.2 13.6-13.2z"/>
<path class="st6" d="m1326.6 603.2c0-4.6-4-8.5-8.6-8.5-4.4 0-8.3 3.9-8.3 8.3 0 4.5 4.1 8.6 8.6 8.5 4.5 0 8.3-3.8 8.3-8.3z"/>
<path class="st0" d="m1356.5 499.2c0.5 6.7-5 13.4-13.1 13.6-7.5 0.2-13.9-6-13.9-13.5 0-7.4 6-13.3 13.5-13.3 7.9-0.1 13.8 6.6 13.5 13.2z"/>
<path class="st6" d="m1343.1 490.9c-4.4-0.1-8.3 3.7-8.5 8.1-0.2 4.5 3.9 8.6 8.5 8.7 4.5 0.1 8.3-3.7 8.4-8.1 0.1-4.6-3.7-8.6-8.4-8.7z"/>
<path class="st0" d="m1334.5 551.6c0 5.4-3.9 9.4-9.3 9.5s-9.7-3.9-9.9-9.5c-0.2-5.1 4.2-9.6 9.4-9.6 6.2 0.1 10 4.9 9.8 9.6z"/>
<path class="st6" d="m1324.9 556.1c2.5 0.1 4.6-2 4.6-4.5s-2.1-4.4-4.6-4.4c-2.4 0-4.2 1.8-4.3 4.2-0.2 2.5 1.8 4.6 4.3 4.7z"/>
<path class="st0" d="m1339.7 456.9c-0.1-3.4 2.6-6.2 5.9-6.3 3.1 0 5.9 2.5 6.1 5.6 0.2 3.4-2.3 6.3-5.6 6.5-3.4 0.2-6.3-2.4-6.4-5.8z"/>
<path class="st14" d="m1346.3 456.6c-0.3-0.1-0.5-0.3-0.8-0.3-0.1 0-0.4 0.4-0.4 0.6 0 0.4 0.4 0.5 0.7 0.3 0.2-0.2 0.3-0.4 0.5-0.6z"/>
<path class="st0" d="m1062.3 413.7c9.5-0.5 18.7 7.6 18.8 18.3 0.1 10.5-8.2 19.2-18.6 19.1-10.6-0.1-18.9-8.2-18.8-18.9 0.1-12.1 10.1-18.9 18.6-18.5z"/>
<path class="st9" d="m1062.5 418.7c-7.7-0.1-13.8 6-13.8 13.6s6.1 13.7 13.8 13.6c7.4-0.1 13.4-6 13.6-13.4 0.1-7.5-6-13.7-13.6-13.8z"/>
<path class="st0" d="m1110.5 492.8c-10.5 0-19.2-8.6-18.8-18.9 0.5-12.7 10.5-18.6 18.7-18.6 10.5 0 18.9 8.5 18.7 19 0 10.3-8.3 18.5-18.6 18.5z"/>
<path class="st9" d="m1124.2 473.8c0.1-6.1-4.7-13.6-13.8-13.5-9 0.1-13.6 7.5-13.4 13.9 0.1 7.5 6.2 13.7 13.9 13.5 8.5-0.2 13.5-7.4 13.3-13.9z"/>
<path class="st0" d="m1076.7 506c10.5 0.1 18.7 8.6 18.5 19.1-0.2 10.2-8.7 18.6-18.9 18.3-12.1-0.3-18.8-10.2-18.6-19.2 0.3-10.2 8.7-18.3 19-18.2z"/>
<path class="st9" d="m1076.3 511c-6.1 0.1-13.5 4.7-13.5 13.9 0 7 5.4 13.4 13.9 13.5 7.4 0.1 13.7-6.5 13.5-13.9-0.1-7.5-6.4-13.6-13.9-13.5z"/>
<path class="st0" d="m1032.7 485.8c0-5.3 4.1-9.4 9.4-9.4 5.2 0 9.4 4.2 9.4 9.4s-4.2 9.5-9.4 9.5-9.4-4.2-9.4-9.5z"/>
<path class="st9" d="m1042 490.1c2.4 0.1 4.3-1.7 4.4-4 0.1-2.5-2-4.7-4.4-4.6-2.2 0.1-4.2 2.2-4.2 4.4-0.1 2.2 1.8 4.1 4.2 4.2z"/>
<path class="st0" d="m1157.4 467.6c0-5.3 4-9.4 9.3-9.5 5.3 0 9.4 4 9.4 9.3s-4 9.6-9.3 9.5c-6.1-0.1-9.6-5.1-9.4-9.3z"/>
<path class="st9" d="m1171.1 467.6c0-2.3-1.8-4.3-4.1-4.4-2.4-0.1-4.6 2.1-4.5 4.5 0.1 2.3 2 4.2 4.3 4.1 2.4-0.1 4.2-1.9 4.3-4.2z"/>
<path class="st0" d="m1129.2 411.9c5.4 0 9.3 4 9.3 9.3s-4 9.3-9.4 9.3-9.3-4-9.3-9.4c0.1-5.3 4.1-9.2 9.4-9.2z"/>
<path class="st9" d="m1133.5 421c-0.1-2.3-2.1-4.2-4.4-4.1-2.5 0-4.4 2.3-4.2 4.7 0.2 2.3 2.3 4 4.6 3.8 2.4-0.1 4.2-2.1 4-4.4z"/>
<path class="st0" d="m1187.4 618.7c-0.1 10.3-8.3 18.4-18.7 18.4-10.5 0-18.8-8.4-18.7-18.9 0.1-10.3 8.4-18.5 18.7-18.5 10.5 0.1 18.8 8.5 18.7 19z"/>
<path class="st9" d="m1168.7 604.9c-7.5 0-13.8 6.1-13.7 13.6 0.1 8.6 7.2 13.6 13.7 13.7 6.1 0 13.6-4.8 13.7-13.7 0.1-7.5-6.2-13.6-13.7-13.6z"/>
<path class="st0" d="m1244.2 596.2c0 10.6-8.3 18.9-18.8 18.9-10.3-0.1-18.7-8.4-18.7-18.6 0-9.8 7.4-19 18.9-18.8 12.8 0.1 18.9 10.7 18.6 18.5z"/>
<path class="st9" d="m1225.6 610c7.6-0.1 13.7-6.3 13.5-13.9-0.1-7.4-6.2-13.3-13.6-13.3-7.6 0-13.8 6.1-13.8 13.7 0.1 7.5 6.3 13.6 13.9 13.5z"/>
<path class="st0" d="m1227.7 652.4c-0.1 5.3-4.3 9.3-9.5 9.3-5.3-0.1-9.3-4.3-9.2-9.5 0.1-5.7 4.5-9.3 9.5-9.3 5.2-0.1 9.3 4.3 9.2 9.5z"/>
<path class="st9" d="m1222.7 652.2c-0.1-2.3-2-4.1-4.4-4.1-2.6 0-4.4 2-4.2 4.6 0.2 2.3 2.3 4.1 4.5 4 2.2-0.2 4.2-2.4 4.1-4.5z"/>
<path class="st0" d="m1162.8 576.3c-5.3 0.1-9.7-4-9.6-9.2 0.1-5.6 4.1-9.4 9.3-9.5 5.3-0.1 9.5 4 9.6 9.2 0 5.3-4 9.4-9.3 9.5z"/>
<path class="st14" d="m1162.4 562.7c-2.3 0.1-4.1 2-4.1 4.3 0.1 2.3 2 4.2 4.2 4.3 2.4 0 4.6-2.3 4.4-4.7-0.1-2.2-2.1-4-4.5-3.9z"/>
<path class="st0" d="m1121.1 296.2c-10.9 0.4-21.3-8.8-21.3-21.2 0-12.7 10.7-21.7 21.6-21.5 11.8 0.3 21 9.6 21.1 21.5 0 11.5-9.7 21.6-21.4 21.2z"/>
<path class="st1" d="m1120.9 291.2c7.8 0.4 16.5-6.1 16.5-16.3 0-8.8-7.3-16.2-16.1-16.3-9-0.1-16.6 7.4-16.5 16.4 0 8.9 7.2 16.1 16.1 16.2z"/>
<path class="st0" d="m1092.4 330.5c0 7.5-5.8 13.4-13.3 13.5-7.4 0.1-13.4-5.9-13.5-13.3 0-7.4 6-13.5 13.3-13.5 7.4-0.1 13.4 5.9 13.5 13.3z"/>
<path class="st1" d="m1087.4 330.5c-0.1-4.4-4-8.4-8.4-8.2-5.2 0.2-8.4 4.1-8.3 8.7 0.2 4.5 4.1 8.2 8.5 8 4.5-0.2 8.3-4.2 8.2-8.5z"/>
<path class="st0" d="m1198.9 323.8c-0.1 7.4-6.2 13.4-13.5 13.3-7.4-0.1-13.4-6.2-13.3-13.6s6.1-13.3 13.6-13.2c7.4 0 13.2 6 13.2 13.5z"/>
<path class="st1" d="m1193.9 323.5c-0.1-4.5-4-8.2-8.4-8.2-4.6 0-8.6 4.2-8.3 8.8 0.3 4.5 4.2 8.1 8.6 7.9 4.5-0.2 8.2-4.1 8.1-8.5z"/>
<path class="st0" d="m1124.9 332.5c-0.1-5.5 4.1-9.7 9.5-9.7 5.2 0 9.4 4.2 9.6 9.3 0.1 5.3-4.3 9.8-9.6 9.8s-9.5-4.1-9.5-9.4z"/>
<path class="st1" d="m1134.5 327.8c-2.4-0.1-4.6 2.1-4.6 4.5s2.1 4.5 4.6 4.5c2.2 0 4.2-1.9 4.3-4.2 0.1-2.5-1.9-4.7-4.3-4.8z"/>
<path class="st0" d="m1037.5 346.7c-3.4 0-5.9-2.8-5.9-6.2 0.1-3.2 2.6-5.7 5.8-5.8 3.4-0.1 6.1 2.6 6.1 6s-2.6 6-6 6z"/>
<path class="st14" d="m1038.2 340.5c-0.3-0.1-0.6-0.3-0.9-0.3-0.1 0-0.2 0.2-0.3 0.3 0.2 0.2 0.4 0.4 0.6 0.5 0.2 0 0.4-0.3 0.6-0.5z"/>
<path class="st0" d="m1298.4 353.2c10.6-0.1 18.9 8.2 18.9 18.7 0 9.3-7.1 18.5-18.6 18.6-11.1 0.1-19-8.5-18.9-18.8 0.1-11.2 9.2-18.6 18.6-18.5z"/>
<path class="st9" d="m1298.6 358.2c-7.6 0-13.8 6.1-13.7 13.7 0 7.4 6 13.4 13.4 13.5 7.6 0.1 13.9-5.9 14-13.5 0-7.5-6.1-13.6-13.7-13.7z"/>
<path class="st0" d="m1242 404c0.1-5.3 4.3-9.3 9.5-9.2s9.3 4.3 9.2 9.6c-0.1 5.5-4.3 9.3-9.6 9.3-5.2-0.1-9.2-4.5-9.1-9.7zm9.4-4.2c-2.2-0.1-4.3 1.9-4.4 4.1-0.2 2.2 1.7 4.3 4 4.5 2.6 0.2 4.7-1.7 4.6-4.3 0-2.3-1.9-4.2-4.2-4.3z"/>
<path class="st0" d="m1313.7 1117.2c4.6 0 8.6 3.9 8.7 8.6 0.1 4.8-4 8.9-8.8 8.9-4.6 0-8.5-3.9-8.6-8.6-0.2-4.9 3.8-8.9 8.7-8.9zm3.6 8.9c0.1-2.1-1.3-3.7-3.3-3.9-2.3-0.2-4 1.4-4 3.7 0 2 1.6 3.7 3.6 3.7 1.9 0.1 3.6-1.4 3.7-3.5z"/>
<path class="st0" d="m1346.3 1168.3c-0.1 4-3.4 7.1-7.5 7.1-4-0.1-7.3-3.3-7.3-7.3 0-4.2 3.5-7.5 7.7-7.3 4.1 0.2 7.2 3.6 7.1 7.5z"/>
<path class="st0" d="m1317.5 1046.7c-3.3 0-5.8-2.5-5.9-5.7s2.5-5.8 5.7-5.9c3.4-0.1 6.2 2.5 6.1 5.9-0.1 3.2-2.7 5.7-5.9 5.7zm0.4-5.8c-0.1-0.2-0.3-0.5-0.4-0.7-0.2 0.2-0.4 0.4-0.5 0.7 0 0.2 0.3 0.5 0.4 0.7 0.2-0.2 0.4-0.5 0.5-0.7z"/>
<path class="st0" d="m1476.4 1109.1c-4.8 0-8.5-3.7-8.6-8.5-0.1-4.9 3.9-8.9 8.8-8.8 4.9 0 8.7 4 8.5 9-0.1 4.8-3.9 8.3-8.7 8.3zm3.8-8.7c0-1.9-1.7-3.6-3.6-3.7-2-0.1-4 1.9-3.9 3.9 0.1 1.9 1.8 3.6 3.7 3.7 2.1 0 3.9-1.8 3.8-3.9z"/>
<path class="st0" d="m1473.4 1064.7c-3.2 0.1-5.9-2.3-6-5.5-0.2-3.5 2.4-6.1 5.9-6.1 3.2 0 5.8 2.5 5.8 5.7s-2.6 5.9-5.7 5.9zm0.4-5.8c-0.2-0.2-0.3-0.6-0.5-0.6s-0.7 0.2-0.7 0.3c-0.1 0.4 0 1 0.7 0.9 0.1 0 0.3-0.4 0.5-0.6z"/>
<path class="st0" d="m1450.3 952.7c-4.8-0.1-8.4-3.9-8.4-8.6 0-4.9 4.1-8.8 8.9-8.7 4.9 0.1 8.6 4.2 8.3 9.2-0.2 4.8-3.9 8.2-8.8 8.1zm4-8.6c0-1.9-1.6-3.7-3.5-3.8-2-0.2-4 1.8-4 3.8 0 1.9 1.6 3.6 3.6 3.7 2.1 0.2 3.9-1.5 3.9-3.7z"/>
<path class="st11" d="m737.6 758.8v-12c0-0.9 0.2-1.9 0.5-2.8 0.3-1 1.9-1.6 2.8-1.1 0.8 0.4 1.6 1 2.3 1.6 5.7 5.2 11.3 10.4 16.4 16.1 1.2 1.3 2.3 2.7 3.3 4.1 3.1 4.9 3.2 10 0 14.9s-8 6.8-13.7 5.7c-5.5-1-9.1-4.4-10.5-9.9-1.1-4.4-0.9-8.9-1.2-13.3-0.1-1.1 0-2.2 0-3.4 0 0.1 0 0.1 0.1 0.1z"/>
<path class="st11" d="m742.6 761.9c0.1 2.7 0.1 5.4 0.3 8.1 0.1 1.6 0.4 3.2 0.8 4.7 1 3.4 3.5 5.3 6.9 5.8 3.3 0.5 6-0.9 7.9-3.5 2-2.9 2.2-5.9 0.4-9-0.6-1.1-1.5-2.1-2.3-3.1-3.6-4.3-7.6-8.1-11.7-11.9-0.4-0.4-0.9-1-1.6-0.8-0.9 0.2-0.7 1-0.7 1.6v8.1z"/>
<path class="st11" d="m783.3 732.6c6 0.2 10.2 2.7 12.6 7.8 2.3 4.9 1.8 9.7-1.5 14-3.4 4.4-8.1 6.1-13.6 4.9-2.2-0.5-4.3-1.3-6.3-2.2-6.7-2.7-13-6-19.4-9.3-0.6-0.3-1.1-0.6-1.6-1-1.9-1.3-1.7-3.5 0.3-4.6 0.3-0.2 0.6-0.3 0.9-0.4 8.2-3.2 16.3-6.4 24.9-8.5 1.3-0.4 2.7-0.5 3.7-0.7z"/>
<path class="st11" d="m783.8 737.6c-0.8 0.1-1.7 0.3-2.6 0.5-6.4 1.4-12.5 3.7-18.6 6.1-0.3 0.1-0.8 0.4-0.8 0.5 0.2 0.4 0.4 1 0.7 1.1 4.9 2.3 9.8 4.7 14.7 6.9 1.6 0.7 3.3 1.3 5 1.6 3.3 0.8 6-0.5 8.1-3 2.2-2.7 2.4-5.9 1-9-1.5-2.9-4-4.4-7.5-4.7z"/>
<path class="st11" d="m701.6 814.8c0.3-7.5 1.3-14.9 2.4-22.4 0.2-1.4 0.2-3 1.9-3.6 1.9-0.6 2.9 0.8 4 2 4.9 5.7 9.8 11.4 14.1 17.5 1.2 1.7 2.4 3.4 3.2 5.3 2.4 4.9 1.4 10.8-2.3 14.7-3.9 4.1-8.7 5.2-14 3.7-5.2-1.4-8.9-6.1-9.3-11.6-0.1-1.7 0-3.7 0-5.6z"/>
<path class="st11" d="m706.6 815.7c0 1.4-0.1 2.9 0 4.3 0.1 1.6 0.7 3.1 1.7 4.4 2.6 3.3 7.1 4.3 10.8 2.2 3.8-2.2 5.5-6.8 3.5-10.7-3.4-6.4-8.1-11.8-12.9-17.2-0.5-0.5-1.3-0.3-1.4 0.4-1.1 5.5-1.3 11.1-1.7 16.6z"/>
<path class="st0" d="m756.6 643.7v-27.3c0-1.3 0.1-2.6 0.4-3.8 0.4-1.5 2.2-2.1 3.5-1.2 0.8 0.5 1.5 1.2 2.1 1.9 12.9 13.5 25.8 27 38.8 40.5 1.7 1.8 2.8 3.8 3.4 6.2 4 16.1-9 31.8-25.5 30.9-8.7-0.5-15.5-4.4-20.3-11.8-1.4-2.2-2.2-4.5-2.2-7.2 0.1-9.4 0-18.8 0-28.2h-0.2z"/>
<path class="st11" d="m780.2 685.8c8.9 0.2 19.2-6.5 20.1-19.2 0.3-4.1-0.9-7.7-4-10.8-10.3-10.5-20.4-21.2-30.5-31.8-0.9-0.9-1.8-1.8-2.8-2.6-0.4-0.3-0.9-0.2-1.1 0.4-0.1 0.6-0.2 1.3-0.2 1.9 0 16 0.1 32 0.1 48 0 2 0.6 3.8 1.7 5.4 4.2 5.6 9.7 8.6 16.7 8.7z"/>
<path class="st0" d="m745.3 643.7v28.8c0 2-0.6 3.8-1.5 5.5-5.3 9.9-17.1 15.1-28.2 12.3-10.7-2.6-18.5-12.2-18.9-23.3-0.1-2.1 0.1-4.2 0.4-6.2 0.4-2.7 1.7-5 3.6-7.1l38.1-39.9c0.9-0.9 1.8-1.8 2.9-2.5s2.8 0 3.1 1.3c0.2 1.2 0.3 2.5 0.3 3.8v22.6 4.8c0-0.1 0.1-0.1 0.2-0.1z"/>
<path class="st11" d="m740.2 647.6c-0.1 0-0.1 0 0 0-0.1-7.5-0.1-15-0.1-22.5 0-1 0-1.9-0.1-2.9 0-0.3-0.2-0.6-0.4-0.8-0.5-0.4-0.9 0-1.2 0.3-0.5 0.4-0.9 0.9-1.3 1.4-10.7 11.2-21.3 22.5-32.1 33.7-2.2 2.2-3 4.8-3.2 7.7-0.6 8.8 4.8 17.1 13.2 20.2 8.1 3 17.5 0.3 22.8-6.6 1.7-2.2 2.6-4.6 2.6-7.5-0.3-7.7-0.2-15.4-0.2-23z"/>
<path class="st0" d="m744.7 552.3v26.3c0 1.3 0 2.6-0.1 3.8-0.1 1.1-0.7 1.8-1.6 2.2-1 0.4-1.9 0.1-2.6-0.6-0.6-0.5-1.1-1.1-1.7-1.7-12.9-13.5-25.8-27-38.8-40.5-1.9-1.9-2.8-4.1-3.4-6.7-2.5-11.9 3.8-23.9 15-28.4 11.4-4.6 24.6-0.3 31 10.1 1.4 2.4 2.2 4.8 2.2 7.7-0.1 9.2 0 18.5 0 27.8z"/>
<path class="st11" d="m739.7 548.7v-23-0.5c0.3-2.7-0.8-5-2.3-7.1-5.1-7.1-14.3-10-22.5-7.3-7.1 2.3-13.7 8.9-13.8 19.3 0 3.6 1 6.7 3.7 9.5 10.5 10.7 20.8 21.6 31.2 32.5l2 2c0.4 0.4 0.8 0.6 1.2 0.3 0.2-0.2 0.4-0.5 0.4-0.8 0.1-0.8 0.1-1.6 0.1-2.4v-22.5z"/>
<path class="st0" d="m756.2 551.7c0-9.3 0.1-18.5 0-27.8 0-2.9 0.8-5.3 2.3-7.6 6.2-9.7 18.4-14 29.4-10.2 10.9 3.7 17.8 14.2 16.8 25.6-0.1 1.6-0.4 3.2-0.7 4.7-0.4 1.9-1.3 3.5-2.7 5-13.1 13.7-26.2 27.5-39.3 41.3-0.5 0.6-1.1 1.1-1.8 1.6-1.4 1-3.5 0.3-3.7-1.4-0.2-1.2-0.2-2.5-0.2-3.8-0.1-9.2-0.1-18.3-0.1-27.4z"/>
<path class="st11" d="m761.2 548.3v23c0 1 0.1 1.9 0.2 2.9 0 0.2 0.6 0.4 0.7 0.3 0.4-0.2 0.8-0.4 1.2-0.8 11.3-11.9 22.7-23.8 34-35.7 1.2-1.2 1.7-2.7 2-4.2 1.9-9-2.9-18.2-11.3-22.2-8.4-3.9-18.5-1.4-24.2 5.8-1.8 2.3-2.8 4.8-2.8 7.9 0.3 7.7 0.2 15.4 0.2 23z"/>
<path class="st0" d="m701.7 602.2h25c1.3 0 2.6 0 3.8 0.1 1.7 0.2 2.6 2.1 1.7 3.7-0.6 0.9-1.4 1.8-2.2 2.6-11.9 12.3-24 24.4-35.7 36.9-4.2 4.4-9.1 5.8-14.7 5.4-12.5-0.7-22.3-9.9-23.8-22.4-1.1-9 3.2-20 13.9-25.3 1.8-0.9 3.7-1 5.6-1h0.5 25.9z"/>
<path class="st11" d="m698.3 607.1h-21.6-0.5c-2.7-0.3-5 0.7-7.1 2.3-7.1 5.1-10.1 14.4-7.3 22.6 2.9 8.5 10.8 14 19.8 13.7 3.5-0.1 6.4-1.2 8.9-3.9 10.1-10.6 20.5-21.1 30.7-31.6 0.5-0.6 1.1-1.2 1.5-1.8 0.3-0.5 0-1-0.5-1.1-0.9-0.1-1.9-0.1-2.9-0.1-7-0.1-14-0.1-21-0.1z"/>
<path class="st0" d="m800 593.6h-25.4c-1.3 0-2.6 0-3.8-0.2-1.7-0.3-2.5-2.3-1.5-3.7 0.6-0.9 1.5-1.7 2.2-2.5 8.7-8.9 17.4-17.9 26-26.8 3.8-3.9 7.6-7.7 11.3-11.7 1.4-1.5 3-2.4 4.8-2.9 12.4-3.4 24.9 2.8 29.8 14 5.1 11.4 0.9 24.9-9.6 31.5-2.4 1.5-4.8 2.3-7.7 2.2-8.6-0.1-17.3 0-26.1 0.1v0z"/>
<path class="st11" d="m802.9 588.6c7.3-0.1 14.7-0.1 22-0.1h0.5c1.6 0 3.1 0 4.6-0.8 6.9-3.5 11.6-12.2 10.5-20-1.5-11.6-11.7-19.2-23.3-17.5-2.1 0.3-3.9 1.1-5.4 2.7-10.6 11-21.4 22-32 32.9-0.4 0.5-0.9 0.9-1.2 1.4s-0.1 1 0.4 1.1c0.6 0.2 1.3 0.2 1.9 0.2 7.3 0.1 14.6 0.1 22 0.1z"/>
<path class="st0" d="m800.5 602.1c8.6 0 17.3 0.1 25.9 0 2.9 0 5.3 0.7 7.7 2.2 10 6.4 14 18.3 10.3 29.4-3.6 10.8-14.3 17.8-25.7 16.8-1.6-0.1-3.2-0.4-4.7-0.8-1.9-0.4-3.5-1.4-4.9-2.8-12.7-13.1-25.5-26.1-38.2-39.1-0.6-0.6-1.1-1.2-1.6-1.8-1-1.5-0.2-3.5 1.5-3.7 1.3-0.2 2.5-0.2 3.8-0.2h25.9z"/>
<path class="st11" d="m803.6 607h-20.6c-1.3 0-2.6 0-3.8 0.1-0.2 0-0.6 0.3-0.6 0.5-0.1 0.3 0 0.7 0.1 0.9 0.4 0.5 0.8 1 1.3 1.4 10.6 10.8 21.2 21.6 31.8 32.5 1.5 1.6 3.2 2.5 5.4 2.9 9 1.5 17.9-3.1 21.7-11.4 3.9-8.5 1.5-18.3-5.8-24.2-2.3-1.8-4.8-2.9-7.9-2.8-7.2 0.3-14.4 0.1-21.6 0.1z"/>
<path class="st0" d="m701.1 593.7c-8.6 0-17.3-0.1-25.9 0-3 0-5.6-0.8-8.1-2.4-9.7-6.3-13.9-18.5-10.1-29.5 3.8-10.9 14.3-17.7 25.8-16.6 1.6 0.1 3.2 0.5 4.7 0.8 1.9 0.4 3.5 1.4 4.9 2.9 7.5 7.7 15 15.3 22.5 23 4.9 5 9.9 10 14.8 15.1 0.9 0.9 1.8 1.8 2.5 2.9 0.9 1.5 0 3.4-1.8 3.6-1.3 0.2-2.6 0.1-3.8 0.1-8.5 0-17 0-25.5 0.1v0z"/>
<path class="st11" d="m697.8 588.7c7-0.1 14.1-0.1 21.1-0.1 1.1 0 2.2 0 3.3-0.1 0.6-0.1 0.7-0.6 0.5-1.1-0.3-0.5-0.7-1-1.2-1.5-10.7-10.9-21.5-21.9-32.1-32.9-1.6-1.6-3.4-2.3-5.5-2.7-9.1-1.4-17.8 3.4-21.5 11.8-3.7 8.3-1.3 18 5.9 23.8 2.3 1.9 4.8 2.9 7.9 2.9 7.2-0.2 14.4-0.1 21.6-0.1z"/>
<path class="st0" d="m625.8 769.9c0.1 10.4-7.2 21.8-20.6 23.8-9 1.3-21.6-3.5-25.7-16.3-0.6-1.9-0.8-3.7-0.4-5.6 3.2-17.1 6.4-34.2 9.5-51.3 0.2-0.9 0.4-1.9 0.7-2.8 0.2-1 0.8-1.7 1.8-2 1.3-0.4 2.2 0.3 2.9 1.3 0.5 0.6 0.9 1.3 1.3 2 9.4 14.4 18.8 28.9 28.3 43.3 1.6 2.5 2.4 5.1 2.2 7.6z"/>
<path class="st11" d="m601.7 788.8c10 0.1 18.3-7.6 19-17.5 0.2-2.5-0.4-4.7-1.8-6.8-7.9-12-15.7-24.1-23.6-36.1-0.4-0.7-0.9-1.3-1.4-1.9-0.4-0.4-0.9-0.2-1.2 0.2-0.2 0.4-0.4 0.9-0.5 1.3-2.6 14.3-5.2 28.6-8 42.9-0.6 3.3 0 6 1.6 8.7 3.8 5.9 9.2 8.9 15.9 9.2z"/>
<path class="st0" d="m548.9 783.8c-18.3-0.2-29.6-17.6-22.8-33.3 0.9-2.1 2.1-3.8 4.1-5.2 14.4-10.3 28.8-20.7 43.1-31 0.6-0.5 1.3-0.9 2-1.3 1.6-0.8 3.3 0.3 3.4 2.1 0 0.9-0.1 1.9-0.3 2.8-3.2 17.1-6.4 34.2-9.5 51.3-0.5 2.8-1.7 5.1-3.7 7.1-4.7 5-10.6 7.5-16.3 7.5z"/>
<path class="st11" d="m548.7 778.8c3.9-0.1 8-1.6 11.5-4.6 2.2-1.8 3.5-4 4-6.9 2.5-13.7 5.1-27.3 7.6-40.9 0.2-1.1 0.3-2.2 0.3-3.3 0-0.6-0.6-0.8-1-0.7-0.7 0.3-1.4 0.8-2 1.2-11.7 8.4-23.3 16.8-35 25.2-2.1 1.5-3.3 3.4-4 5.7-3.7 11.9 5.3 24.2 18.6 24.3z"/>
<path class="st0" d="m547.9 634.6c0-12.4 8.6-22.4 20.1-24 12-1.7 22.9 5.1 26.4 16.5 0.5 1.7 0.6 3.4 0.3 5.2-3.2 16.9-6.3 33.9-9.4 50.8-0.2 1.3-0.5 2.5-0.9 3.7-0.6 1.9-2.9 2.3-4.2 0.8-0.7-0.8-1.3-1.8-1.9-2.7-9.2-14.2-18.4-28.4-27.7-42.5-1.9-2.6-3.1-5.3-2.7-7.8z"/>
<path class="st11" d="m573.3 615.4c-10.2 0-17.4 5.5-19.7 13.7-1.1 4-0.9 7.6 1.6 11.3 7.7 11.4 15 23 22.5 34.4 0.5 0.8 1 1.6 1.6 2.4 0.3 0.3 0.9 0.7 1.1 0.6 0.4-0.2 0.6-0.7 0.7-1.1 0.2-0.6 0.3-1.2 0.4-1.9 1.2-6.4 2.4-12.9 3.6-19.3 1.4-7.7 2.7-15.4 4.3-23.1 0.5-2.5 0.1-4.7-1.1-6.9-3.6-6.4-9.1-9.8-15-10.1z"/>
<path class="st0" d="m527.5 640.6c2.6-0.1 5.4 0.5 8.1 1.5 2.9 1 5.2 2.7 7 5.5 8.8 13.5 17.9 26.9 26.8 40.3 0.8 1.2 1.6 2.4 2.2 3.7 0.5 1.1-0.5 2.8-1.7 2.9-1.4 0.1-2.9 0-4.3-0.3-12.6-2.3-25.1-4.7-37.7-7-3.5-0.6-6.9-1.4-10.4-1.9-2.5-0.4-4.5-1.6-6.3-3.2-7.1-6.4-9.7-16.9-6.3-25.9 3.6-9.4 12.4-15.6 22.6-15.6z"/>
<path class="st11" d="m508.6 664.5c0 4.3 1.7 8.5 4.4 11.9 2.5 3.2 6 3.9 9.6 4.6 9.4 1.7 18.8 3.5 28.3 5.3 3.6 0.7 7.2 1.3 10.8 2 0.3 0.1 0.7 0 0.9-0.2 0.4-0.4 0.2-0.8-0.1-1.2-0.2-0.3-0.3-0.6-0.5-0.8-8-12-16-23.9-24-35.9-1.1-1.7-2.7-2.7-4.5-3.4-12-4.5-24.9 4.7-24.9 17.7z"/>
<path class="st0" d="m517.4 739.5c-12.3-0.1-22.3-8.7-23.8-20.6-1.6-12.3 6.2-22.6 16.3-25.7 1.9-0.6 3.7-0.7 5.6-0.4 16.3 3.1 32.7 6.1 49 9.2 1.1 0.2 2.2 0.3 3.2 1 1.1 0.7 1.5 2.4 0.6 3.3-1 1-2.2 1.9-3.3 2.7-13.2 9.3-26.4 18.5-39.6 27.9-2.6 1.9-5.3 2.9-8 2.6z"/>
<path class="st11" d="m517.7 734.5c1.8 0.4 3.5-0.9 5.2-2.1 11.1-7.8 22.2-15.6 33.3-23.5 0.7-0.5 1.3-0.9 1.9-1.4 0.2-0.2 0.4-0.5 0.4-0.8 0.1-0.7-0.5-0.8-0.9-0.8-6.1-1.2-12.2-2.3-18.3-3.5-7.8-1.5-15.7-2.9-23.5-4.4-1.9-0.4-3.8-0.4-5.6 0.4-8.2 3.2-13 12.2-11.4 21 1.6 8.5 9.3 15.1 18.9 15.1z"/>
<path class="st0" d="m670.1 740c0 16.9-17.5 28.6-33.7 21.4-1.9-0.9-3.5-2.1-4.7-3.9l-28.2-42.3c-0.5-0.8-1.1-1.6-1.4-2.5-0.6-1.4 0.5-3 2-3.1 0.9-0.1 1.9 0 2.9 0.2 16.3 3 32.6 6.2 49 9.1 2.5 0.5 4.5 1.5 6.3 3.2 5.1 4.9 7.8 10.8 7.8 17.9z"/>
<path class="st11" d="m665.1 739.8c0-4.4-1.8-8.9-4.7-12.3-1.7-2-3.7-3.3-6.4-3.7-11.6-2-23.2-4.3-34.8-6.4-2.5-0.5-5-0.9-7.6-1.2-0.5-0.1-0.8 0.5-0.7 1 0.1 0.4 0.4 0.8 0.7 1.2 8 11.9 16 23.9 23.9 35.8 1 1.5 2.4 2.5 4.1 3.2 12.1 4.7 25.6-4.5 25.5-17.6z"/>
</svg>
